<?xml version="1.0" encoding="UTF-8"?>
<svg width="14px" height="14px" viewBox="0 0 14 14" version="1.1" xmlns="http://www.w3.org/2000/svg" xmlns:xlink="http://www.w3.org/1999/xlink">
    <title> xyd/zhongxin/qd_ok_icon</title>
    <g id="-xyd/zhongxin/qd_ok_icon" stroke="none" stroke-width="1" fill="none" fill-rule="evenodd">
        <path d="M7,0 C3.13388672,0 0,3.13397042 0,7 C0,10.8660435 3.13388672,14 7,14 C10.8659598,14 14,10.8660435 14,7 C14,3.13397042 10.8659598,0 7,0 Z M11.3617746,5.28184989 L6.4632952,10.0053292 C6.40014086,10.0685616 6.32666342,10.1205582 6.246024,10.159082 C5.93840681,10.3788644 5.50832868,10.3508371 5.23215681,10.0746233 L3.12858538,7.97101004 C2.82098214,7.66342076 2.82098214,7.16484375 3.12858538,6.85738002 C3.43602121,6.54976283 3.93462612,6.54976283 4.2422154,6.85738002 L5.82155413,8.436649 L10.2481166,4.16812221 C10.555678,3.86060268 11.0543108,3.86060268 11.3617467,4.16812221 C11.6693638,4.47566964 11.6693638,4.97430246 11.3617746,5.28183594 L11.3617746,5.28184989 Z" id="形状" fill="#FFFFFF" fill-rule="nonzero"></path>
    </g>
</svg>