<?xml version="1.0" encoding="UTF-8"?>
<svg width="18px" height="18px" viewBox="0 0 18 18" version="1.1" xmlns="http://www.w3.org/2000/svg" xmlns:xlink="http://www.w3.org/1999/xlink">
    <title> xyd/gwc/xuanzhong_icon</title>
    <g id="-xyd/gwc/xuanzhong_icon" stroke="none" stroke-width="1" fill="none" fill-rule="evenodd">
        <g id="编组" fill="#1C87F0" fill-rule="nonzero">
            <path d="M9,0.00769889732 C4.03368348,0.00769889732 0.00769889732,4.03368348 0.00769889732,9 C0.00769889732,13.9663165 4.0336835,17.9923011 9,17.9923011 C13.9663165,17.9923011 17.9923011,13.9663165 17.9923011,9 C17.9923011,4.0336835 13.9663165,0.00769889732 9,0.00769889732 Z M13.7660633,6.73687597 L8.5735432,13.3834388 C8.05609581,14.045769 7.10254233,14.0409649 6.59710521,13.3666861 L4.10876305,10.047213 C3.81088794,9.6498272 3.89153123,9.08622753 4.28891703,8.78833191 C4.68630283,8.4904568 5.24992303,8.5711001 5.54779812,8.9684859 L7.58652523,11.8383439 L12.3488315,5.62965272 C12.6545697,5.23830285 13.2196886,5.16888968 13.611059,5.47462792 C14.0024089,5.78038665 14.0718015,6.34550557 13.7660633,6.73687597 Z" id="形状"></path>
        </g>
    </g>
</svg>