<?xml version="1.0" encoding="UTF-8"?>
<svg width="20px" height="20px" viewBox="0 0 20 20" version="1.1" xmlns="http://www.w3.org/2000/svg" xmlns:xlink="http://www.w3.org/1999/xlink">
    <title>切片</title>
    <defs>
        <linearGradient x1="50%" y1="0%" x2="50%" y2="100%" id="linearGradient-1">
            <stop stop-color="#59B3FF" offset="0%"></stop>
            <stop stop-color="#1C87F0" offset="100%"></stop>
        </linearGradient>
    </defs>
    <g id="小油灯" stroke="none" stroke-width="1" fill="none" fill-rule="evenodd">
        <g id="个人中心_已实名认证备份-3" transform="translate(-21.000000, -755.000000)" fill="url(#linearGradient-1)" fill-rule="nonzero">
            <g id="xyd/grzx/daka_icon" transform="translate(21.000000, 755.000000)">
                <path d="M20,16.6666667 C20,18.5076158 18.5076158,20 16.6666667,20 L3.33333333,20 C1.49238417,20 0,18.5076158 0,16.6666667 L0,3.33333333 C0,1.49238417 1.49238417,0 3.33333333,0 L16.6666667,0 C18.5076158,0 20,1.49238417 20,3.33333333 L20,16.6666667 Z M18.333,6.944 L1.666,6.944 L1.66666667,16.6666667 C1.66666667,17.5871412 2.41285875,18.3333333 3.33333333,18.3333333 L16.6666667,18.3333333 C17.5871412,18.3333333 18.3333333,17.5871412 18.3333333,16.6666667 L18.333,6.944 Z M13.2297184,9.55927355 C13.56206,9.61246329 13.8297786,9.86035093 13.9083382,10.1876253 C13.9868978,10.5148996 13.8608736,10.8573021 13.5888889,11.0555555 L10,14.7444445 C9.85324532,14.8960449 9.65505341,14.9872132 9.44444445,15 C9.23449844,14.9989448 9.03247416,14.9197196 8.87777779,14.7777778 L6.48888888,12.5555555 C6.16992853,12.2277475 6.16992853,11.7055858 6.48888888,11.3777778 C6.81424171,11.0528296 7.34131384,11.0528296 7.66666667,11.3777778 L9.44444445,13.0222222 L12.3888889,9.94444445 C12.5656656,9.6580355 12.8973767,9.50608381 13.2297184,9.55927355 Z M16.6666667,1.66666667 L14.166,1.666 L14.1666667,2.5 C14.1606824,2.95773562 13.791069,3.32734909 13.3333333,3.33333333 C12.8755977,3.32734909 12.5059842,2.95773562 12.5,2.5 L12.5,1.666 L7.5,1.666 L7.5,2.5 C7.49401576,2.95773562 7.12440229,3.32734909 6.66666667,3.33333333 C6.20893104,3.32734909 5.83931757,2.95773562 5.83333333,2.5 L5.833,1.666 L3.33333333,1.66666667 C2.41285875,1.66666667 1.66666667,2.41285875 1.66666667,3.33333333 L1.666,5.277 L18.333,5.277 L18.3333333,3.33333333 C18.3333333,2.41285875 17.5871412,1.66666667 16.6666667,1.66666667 Z" id="形状"></path>
            </g>
        </g>
    </g>
</svg>