<?xml version="1.0" encoding="UTF-8"?>
<svg width="16px" height="20px" viewBox="0 0 16 20" version="1.1" xmlns="http://www.w3.org/2000/svg" xmlns:xlink="http://www.w3.org/1999/xlink">
    <!-- Generator: Sketch 52.2 (67145) - http://www.bohemiancoding.com/sketch -->
    <title>坐标</title>
    <desc>Created with Sketch.</desc>
    <g id="Page-2" stroke="none" stroke-width="1" fill="none" fill-rule="evenodd">
        <g id="05-我的-全部订单-订单详情" transform="translate(-15.000000, -158.000000)" fill="#B0C2CE" fill-rule="nonzero">
            <g id="地址" transform="translate(0.000000, 108.000000)">
                <g id="坐标" transform="translate(15.000000, 50.000000)">
                    <ellipse id="Oval-8" fill-opacity="0.498103487" cx="8" cy="17" rx="8" ry="3"></ellipse>
                    <path d="M8,17 C3.66666667,12.3685945 1.5,8.86065797 1.5,6.47619048 C1.5,2.89948924 4.41014913,0 8,0 C11.5898509,0 14.5,2.89948924 14.5,6.47619048 C14.5,8.86065797 12.3333333,12.3685945 8,17 Z M8,8 C9.1045695,8 10,7.1045695 10,6 C10,4.8954305 9.1045695,4 8,4 C6.8954305,4 6,4.8954305 6,6 C6,7.1045695 6.8954305,8 8,8 Z" id="Combined-Shape"></path>
                </g>
            </g>
        </g>
    </g>
</svg>