<?xml version="1.0" encoding="UTF-8"?>
<svg width="42px" height="42px" viewBox="0 0 42 42" version="1.1" xmlns="http://www.w3.org/2000/svg" xmlns:xlink="http://www.w3.org/1999/xlink">
    <title>切片</title>
    <defs>
        <linearGradient x1="50%" y1="0%" x2="50%" y2="100%" id="linearGradient-1">
            <stop stop-color="#FF6B73" offset="0%"></stop>
            <stop stop-color="#FB464B" offset="100%"></stop>
        </linearGradient>
    </defs>
    <g id="小油灯" stroke="none" stroke-width="1" fill="none" fill-rule="evenodd">
        <g id="浪潮美物纪精选" transform="translate(-240.000000, -399.000000)">
            <g id="编组-47" transform="translate(10.000000, 309.000000)">
                <g id="编组-47" transform="translate(230.000000, 90.000000)">
                    <rect id="矩形备份-8" stroke="#979797" fill="#D8D8D8" opacity="0" x="0.5" y="0.5" width="41" height="41"></rect>
                    <path d="M21,10 L21,12.973 L21.3574772,12.9734375 C21.4064148,12.9734375 21.453419,12.9829005 21.4964532,13.0001226 L21.7597403,13 L23,30 L23,31.6476563 C23,31.8187256 22.8737324,31.9601868 22.707793,31.9928791 L22.6344997,32 L13.3655003,32 C13.1880432,32 13.0412999,31.8782776 13.0073868,31.7183113 L13,31.6476563 L13,30.1244141 L14.2770225,13.3 C14.288723,13.1383301 14.4113341,13.0095581 14.5702045,12.9798912 L14.6402942,12.9734375 L15.0659684,12.9734375 L15.0659684,10.3523437 C15.0659684,10.1812744 15.1922359,10.0398132 15.3581754,10.0071209 L15.4314687,10 L21,10 Z M24,11 L24.2882215,10.9996874 L24.330126,10.9927872 L24.330126,10.9927872 L24.3734345,10.9904297 L27,10.99 L27,10 L29.6265655,10 C29.8058824,10 29.9573055,10.1217224 29.9923595,10.2816887 L30,10.3523437 L30,31.6476563 C30,31.8187256 29.8709915,31.9601868 29.7014498,31.9928791 L29.6265655,32 L27.4929791,32 C27.3116698,32 27.161741,31.8782776 27.1270917,31.7183113 L27.1195446,31.6476563 L27.119,31 L27,31 L27,17.828 L24.3734345,17.8289062 C24.1921252,17.8289062 24.0421964,17.7071838 24.0075471,17.5472176 L24,17.4765625 L24,11 Z M14,30.5 L13.7310007,30.5003906 L13.7310007,31.2953125 L22.2689993,31.2953125 L22.268,31 L14,31 L14,30.5 Z M29.2531309,10.7046875 L29,10.704 L29,31 L27.864,31 L27.8641366,31.2953125 L29.2531309,31.2953125 L29.2531309,10.7046875 Z M15.191,13.675 L14.9812793,13.6759766 L13.7577446,29.7978516 L14.015,29.797 L15.191,13.675 Z M24.744592,17.1263672 L27,17.126 L27,17 L24.744,17 L24.744592,17.1263672 Z M16,10.704 L15.796969,10.7046875 L15.796969,12.9734375 L16,12.973 L16,10.704 Z" id="形状" fill="url(#linearGradient-1)" fill-rule="nonzero"></path>
                </g>
            </g>
        </g>
    </g>
</svg>