<?xml version="1.0" encoding="UTF-8"?>
<svg width="42px" height="42px" viewBox="0 0 42 42" version="1.1" xmlns="http://www.w3.org/2000/svg" xmlns:xlink="http://www.w3.org/1999/xlink">
    <title>切片</title>
    <defs>
        <linearGradient x1="50%" y1="0%" x2="50%" y2="100%" id="linearGradient-1">
            <stop stop-color="#3BA3F8" offset="0%"></stop>
            <stop stop-color="#285EEF" offset="100%"></stop>
        </linearGradient>
    </defs>
    <g id="小油灯" stroke="none" stroke-width="1" fill="none" fill-rule="evenodd">
        <g id="浪潮美物纪精选" transform="translate(-96.000000, -319.000000)">
            <g id="编组-47" transform="translate(10.000000, 309.000000)">
                <g id="编组-34" transform="translate(85.000000, 10.000000)">
                    <g id="编组-36" transform="translate(1.000000, 0.000000)">
                        <rect id="矩形备份-11" stroke="#979797" fill="#D8D8D8" opacity="0" x="0.5" y="0.5" width="41" height="41"></rect>
                        <path d="M30.3718931,13.7955096 L22.6481499,9.38497226 C21.7467296,8.87856969 20.2799944,8.86482812 19.3785741,9.38497226 L11.6419828,13.7955096 C10.7400486,14.3019122 10,15.5676641 10,16.6069345 L10,25.3883113 C10,26.4275817 10.7266866,27.680101 11.6419828,28.1997363 L19.3652121,32.6102736 C20.2666324,33.1299088 21.7333676,33.1299088 22.6347879,32.6102736 L30.3585311,28.1997363 C31.2599514,27.68061 32,26.4275817 32,25.3883113 L32,16.6069345 C32,15.5676641 31.2733134,14.3014032 30.3718931,13.7955096 L30.3718931,13.7955096 Z M27.0617175,19.9115294 L25.1375911,21.8302607 C24.7341618,22.2302933 24.4915903,23.016108 24.5861521,23.57595 L25.0435433,26.2810049 C25.1375911,26.840847 24.8148477,27.0805611 24.3168567,26.8271054 L21.9353392,25.5481208 C21.4373482,25.2814324 20.6299757,25.2814324 20.1319847,25.5481208 L17.7504672,26.8276143 C17.2524762,27.0937938 16.9297327,26.8540796 17.0237806,26.2810049 L17.4811717,23.57595 C17.5757335,23.016108 17.3198001,22.2302933 16.9297328,21.8302607 L14.9655205,19.9115294 C14.5615773,19.5120058 14.696225,19.1252058 15.2481779,19.0320684 L17.9118389,18.6325448 C18.4637918,18.5526401 19.1231546,18.0594702 19.3652121,17.5530676 L20.5626519,15.0877268 C20.8047094,14.5813243 21.2220146,14.5813243 21.4640722,15.0877268 L22.6615119,17.5530676 C22.9040834,18.0594702 23.5634461,18.5526401 24.1148851,18.6320359 L26.77906,19.0320684 C27.3310129,19.1252058 27.4522987,19.5252384 27.0617175,19.9115294 L27.0617175,19.9115294 Z" id="形状" fill="url(#linearGradient-1)" fill-rule="nonzero"></path>
                    </g>
                </g>
            </g>
        </g>
    </g>
</svg>