<?xml version="1.0" encoding="UTF-8"?>
<svg width="42px" height="42px" viewBox="0 0 42 42" version="1.1" xmlns="http://www.w3.org/2000/svg" xmlns:xlink="http://www.w3.org/1999/xlink">
    <title>切片</title>
    <defs>
        <linearGradient x1="50%" y1="0%" x2="50%" y2="100%" id="linearGradient-1">
            <stop stop-color="#FB3660" offset="0%"></stop>
            <stop stop-color="#D52340" offset="100%"></stop>
        </linearGradient>
    </defs>
    <g id="小油灯" stroke="none" stroke-width="1" fill="none" fill-rule="evenodd">
        <g id="浪潮美物纪精选" transform="translate(-310.000000, -319.000000)">
            <g id="编组-47" transform="translate(10.000000, 309.000000)">
                <g id="编组-39" transform="translate(300.000000, 10.000000)">
                    <rect id="矩形备份-14" stroke="#979797" fill="#D8D8D8" opacity="0" x="0.5" y="0.5" width="41" height="41"></rect>
                    <path d="M30.5774436,23.3560172 C29.7519865,23.8234541 28.8178802,24.0648106 27.8693878,24.0557307 L27.866237,24.0557307 C26.6005489,24.052413 25.3774312,23.5981888 24.4161833,22.7744986 C23.468809,23.6006778 22.2544589,24.0558023 20.997637,24.0557307 L20.9645542,24.0557307 C19.7284488,24.0063441 18.5432776,23.5498344 17.5932689,22.7571633 C16.628416,23.5904796 15.3974268,24.051078 14.1227354,24.0557307 C13.1782119,24.0678652 12.2483324,23.8215524 11.433584,23.3434097 L11.2256355,23.2141834 L11.2256355,29.5541547 C11.2256355,30.9 12.3252417,32 13.6706051,32 L28.3325457,32 C29.6779091,32 30.7775152,30.9 30.7775152,29.5541547 L30.7775152,23.2315186 C30.720802,23.2661891 30.6656642,23.3055874 30.6089509,23.3386819 L30.579019,23.3560172 L30.5774436,23.3560172 Z M12.3157895,21.7044413 C12.8923738,22.0275072 13.5823845,22.2056003 14.3763695,22.2056003 C15.666508,22.2071232 16.8886706,21.6270827 17.7035446,20.6265043 C18.5304545,21.5932145 19.7263727,22.1664997 20.997637,22.2056003 C22.3004655,22.2056003 23.4599356,21.6319484 24.290154,20.6265043 C25.1052944,21.6284888 26.3290859,22.2087529 27.6204798,22.2056003 C28.4176155,22.2056003 29.1029001,22.0243553 29.7188686,21.7044413 C31.1251837,20.9210182 31.9978643,19.4378945 32,17.8276504 C31.9698075,17.3648012 31.8846642,16.9071905 31.7463659,16.4644699 C31.7463659,16.3919771 31.7117078,16.3573066 31.7117078,16.2832378 L29.8653777,11.5790831 C29.5424275,10.6083095 28.6365915,10 27.5495883,10 L14.5197279,10 C13.4327247,10 12.5662728,10.573639 12.2779807,11.5050143 L10.2504833,16.3194842 C10.2504833,16.3541547 10.2158253,16.393553 10.2158253,16.4282235 C10.0693161,16.8931232 10,17.3249284 10,17.7898281 C10,19.4398281 10.8664518,20.9148997 12.3157895,21.7044413 Z M14.9356248,15.5078797 L27.1841031,15.5078797 C27.6204798,15.5078797 27.9828142,15.8656161 27.9828142,16.2958453 C27.9618394,16.726539 27.6148618,17.0695331 27.1841031,17.0853868 L14.9356248,17.0853868 C14.499741,17.0837241 14.1453503,16.7334102 14.1384891,16.2974212 C14.1384891,15.8703438 14.5008235,15.5078797 14.9356248,15.5078797 L14.9356248,15.5078797 Z" id="形状" fill="url(#linearGradient-1)" fill-rule="nonzero"></path>
                </g>
            </g>
        </g>
    </g>
</svg>