<?xml version="1.0" encoding="UTF-8"?>
<svg width="42px" height="42px" viewBox="0 0 42 42" version="1.1" xmlns="http://www.w3.org/2000/svg" xmlns:xlink="http://www.w3.org/1999/xlink">
    <title>切片</title>
    <defs>
        <linearGradient x1="50%" y1="0%" x2="50%" y2="100%" id="linearGradient-1">
            <stop stop-color="#9CF679" offset="0%"></stop>
            <stop stop-color="#08BD33" offset="100%"></stop>
        </linearGradient>
    </defs>
    <g id="小油灯" stroke="none" stroke-width="1" fill="none" fill-rule="evenodd">
        <g id="浪潮美物纪精选" transform="translate(-96.000000, -399.000000)">
            <g id="编组-47" transform="translate(10.000000, 309.000000)">
                <g id="编组-45" transform="translate(86.000000, 90.000000)">
                    <rect id="矩形备份-6" stroke="#979797" fill="#D8D8D8" opacity="0" x="0.5" y="0.5" width="41" height="41"></rect>
                    <path d="M33.7892499,16.3340083 C33.5032376,15.7317842 33.207475,15.109112 32.4644406,15.0150373 C31.9600453,14.950971 30.8333961,14.8668548 29.5634124,14.7979419 C28.846609,13.8269544 28.1317754,12.9334772 27.5398233,12.2691784 C26.496266,11.0980913 26.1703328,11 25.9467626,11 L16.0378107,11 C15.8144375,11 15.4888655,11.0980913 14.4470482,12.269444 C13.8562123,12.9337759 13.1427575,13.8272531 12.4275299,14.7980083 C11.1601726,14.8669212 10.0358543,14.9510373 9.53247668,15.0150705 C8.79141213,15.109112 8.49607626,15.731917 8.21052363,16.3340083 C8.06732053,16.6355519 7.9246427,16.9845643 8.0453903,17.3107054 C8.16669599,17.6383734 8.50346294,17.8080332 8.80894318,17.9410788 C9.14456109,18.0879668 9.46225398,18.2020913 9.69984243,18.2804647 C9.45142018,18.81839 9.00066856,19.7861245 8.76219371,20.2474689 L8.7556606,20.2601494 C8.52023891,20.7180083 8.49000276,20.8233029 8.48612886,21.619917 C8.48084328,22.7312531 8.47362075,28.6581245 8.49157859,29.524083 C8.49949054,29.8783734 8.53534056,30.2799668 8.74137969,30.5718506 C8.93904724,30.851917 9.25401527,30.9905394 9.70417595,30.9957178 C9.94970919,30.998639 10.342779,31 10.9411658,31 C11.5785213,31 12.2824227,30.9982739 12.7964043,30.9970124 C13.0829418,30.9963154 13.3068403,30.995751 13.4202668,30.995751 C14.1458029,30.995751 14.6146109,30.5026722 14.6146109,29.7396515 L14.6146109,28.4157012 L27.2404822,28.4157012 L27.2404822,29.7396515 C27.2404822,30.5026722 27.710078,30.995751 28.4368288,30.995751 C28.5498943,30.995751 28.7747776,30.9963154 29.063088,30.9969793 C29.5838653,30.9982407 30.2971231,31 30.9421937,31 C31.5488863,31 31.9452719,30.998639 32.1893607,30.9957178 C33.348577,30.9825394 33.3697521,30.0337925 33.381144,29.5238506 C33.3952608,28.8750207 33.3880383,25.6873029 33.3837376,23.7827054 C33.3823259,23.1675685 33.3812425,22.6830539 33.3812425,22.4555353 L33.3812753,22.3238506 C33.3815708,21.1287967 33.3816693,20.6816598 33.1233653,20.2323983 C32.8709378,19.7930622 32.4792468,18.821112 32.2712051,18.2887967 C32.5117482,18.2102905 32.8407345,18.0934108 33.1885322,17.941444 C33.495457,17.8081328 33.8330447,17.6384398 33.9545474,17.3105062 C34.0754591,16.984332 33.9325843,16.6353527 33.7892499,16.3340083 Z M17.3048725,23.7079502 C17.2374403,23.7737095 17.1475198,23.8102905 17.0541522,23.8102905 C17.0498187,23.8102905 17.0454852,23.8102241 17.0411516,23.8100581 C16.9075676,23.8052116 13.7590364,23.6899585 12.8651496,23.6066722 C12.5247386,23.5749378 12.2516284,23.4350207 12.0534356,23.1907718 C11.6119748,22.6467054 11.7046858,21.7537925 11.7600695,21.2202822 C11.7706407,21.1183071 11.7798002,21.0301411 11.7816058,20.9756349 C11.7868914,20.8021245 11.9221825,20.618888 12.1643999,20.618888 C12.4754941,20.618888 15.1107331,20.9190373 15.9794395,21.063834 C16.4654831,21.1447635 16.8405622,21.3103402 17.0942044,21.5560166 C17.3880958,21.8406639 17.4166248,22.1277012 17.4152911,22.2378755 C17.4139656,22.3654108 17.4145565,22.8166639 17.4149833,23.1461245 C17.4151474,23.2724647 17.4152911,23.3805477 17.4152911,23.4451452 C17.4152911,23.5442656 17.3754563,23.6391369 17.3048725,23.7079502 Z M21.6711554,18.6258257 L18.0077233,18.624332 C16.228387,18.624332 15.0985862,18.625361 14.64987,18.6273859 C14.2846397,18.6273859 13.9604137,18.4197842 13.8021089,18.08561 C13.5856628,17.6272199 13.7341187,16.9402158 14.2558481,15.9848631 C14.6078151,15.3403485 15.0131961,14.7929959 15.0302676,14.7699917 C16.0703449,13.3833361 16.6913841,12.8923154 17.4045106,12.8923154 C17.4060536,12.8923154 17.4075966,12.8923154 17.4091724,12.8923485 L17.4651799,12.8930788 C17.4675108,12.893112 17.4698745,12.8931452 17.4722054,12.8932448 L17.4886531,12.8937759 C17.7280472,12.8917842 18.4351987,12.8907884 19.5910007,12.8907884 L20.8291724,12.8915519 C20.8399405,12.8915519 20.8506102,12.892083 20.8611485,12.8930124 L21.6496848,12.8915519 L22.8442258,12.8930788 L23.3024626,12.8907884 L23.6172008,12.8911867 C24.0153921,12.8916515 24.3299005,12.8920166 24.5057691,12.8938755 C24.510234,12.8939087 24.514666,12.8940415 24.519098,12.8942739 C24.5247775,12.8940083 24.5304899,12.8938755 24.5362351,12.8938755 C25.2606878,12.8938755 25.8699412,13.364249 26.9505632,14.7579419 C27.134114,14.9943568 27.5982273,15.6205145 27.9396889,16.323751 C28.3105987,17.0876349 28.3985166,17.6583237 28.2084984,18.0683817 C28.0499966,18.4128133 27.7200583,18.6273859 27.3478024,18.6273859 C26.8932097,18.625361 25.9450883,18.6243651 24.528159,18.6243651 L21.6711554,18.6258257 Z M29.9422014,23.1899751 C29.7435489,23.434722 29.469815,23.5749378 29.1285832,23.6066722 C28.2328252,23.6899585 25.0786472,23.8051784 24.9448334,23.8100581 C24.940467,23.8102241 24.9361335,23.8102905 24.9318328,23.8102905 C24.8384652,23.8102905 24.7485447,23.7737095 24.6811125,23.7079502 C24.6105615,23.6391369 24.5706961,23.5442656 24.5706961,23.4451452 C24.5706961,23.3805477 24.5708376,23.2724647 24.5710346,23.1460913 C24.5714614,22.8165975 24.5720195,22.3653776 24.5706961,22.2369461 C24.5693931,22.1275353 24.5979877,21.8404647 24.8923716,21.555751 C25.1462764,21.3102075 25.5217167,21.1446639 26.0082198,21.0637676 C26.8793228,20.918971 29.5202085,20.6188548 29.8314996,20.6188548 C30.0729292,20.6188548 30.2068086,20.7959502 30.214261,20.9709212 C30.2142938,20.9721162 30.2143595,20.9733112 30.2143923,20.9745062 C30.2161651,21.0287801 30.2253246,21.1168133 30.2358957,21.2186888 C30.2914107,21.7522656 30.3842531,22.645278 29.9422014,23.1899751 Z" id="形状" fill="url(#linearGradient-1)" fill-rule="nonzero"></path>
                </g>
            </g>
        </g>
    </g>
</svg>