<?xml version="1.0" encoding="UTF-8"?>
<svg width="42px" height="42px" viewBox="0 0 42 42" version="1.1" xmlns="http://www.w3.org/2000/svg" xmlns:xlink="http://www.w3.org/1999/xlink">
    <title>切片</title>
    <defs>
        <linearGradient x1="50%" y1="0%" x2="50%" y2="100%" id="linearGradient-1">
            <stop stop-color="#FFF2DA" offset="0%"></stop>
            <stop stop-color="#FFE1B4" offset="100%"></stop>
        </linearGradient>
        <linearGradient x1="50%" y1="0%" x2="50%" y2="100%" id="linearGradient-2">
            <stop stop-color="#FED633" offset="0%"></stop>
            <stop stop-color="#F89237" offset="100%"></stop>
        </linearGradient>
    </defs>
    <g id="小油灯" stroke="none" stroke-width="1" fill="none" fill-rule="evenodd">
        <g id="浪潮美物纪精选" transform="translate(-240.000000, -319.000000)">
            <g id="编组-47" transform="translate(10.000000, 309.000000)">
                <g id="编组-38" transform="translate(230.000000, 10.000000)">
                    <rect id="矩形备份-13" stroke="#979797" fill="#D8D8D8" opacity="0" x="0.5" y="0.5" width="41" height="41"></rect>
                    <g id="编组-34" transform="translate(9.000000, 10.000000)" fill-rule="nonzero">
                        <path d="M15.6897183,0.220249674 C17.6520082,-0.493943654 19.8462474,0.586001844 20.5909556,2.63201741 L20.9627925,3.6537322 C20.9899489,3.728349 20.9789993,3.81152177 20.9334562,3.8765677 C20.8879132,3.94161363 20.8135034,3.98035965 20.7340985,3.98035965 L6.73925584,3.98035965 C6.62112689,3.98035965 6.52004189,3.89556607 6.49953077,3.77923144 C6.47901965,3.66289682 6.54500527,3.54863053 6.65601695,3.50824668 L15.6897183,0.220249674 Z" id="路径" fill="url(#linearGradient-1)"></path>
                        <path d="M20.6880282,3.48965517 C22.70432,3.48965517 24.3388568,5.12419195 24.3388568,7.14048369 L24.3388568,9.43143943 C24.3388568,10.1477957 24.023283,10.8277756 23.4761964,11.2902283 C23.0371843,11.6613351 22.8176782,12.0933498 22.8176782,12.5863029 C22.8176782,13.079256 23.0371843,13.5112707 23.4761964,13.882347 C24.0232993,14.3448135 24.3388568,15.0248192 24.3388568,15.7411968 L24.3388568,18.0321221 C24.3388568,20.0484138 22.70432,21.6829506 20.6880282,21.6829506 L3.65082851,21.6829506 C1.63453677,21.6829506 -1.13686838e-13,20.0484138 -1.13686838e-13,18.0321221 L-1.13686838e-13,15.7411663 C-1.13686838e-13,15.0248101 0.315573748,14.3448302 0.862660354,13.8823774 C1.30167248,13.5112707 1.52117855,13.079256 1.52117855,12.5863029 C1.52117855,12.0933498 1.30167248,11.6613351 0.862660354,11.2902588 C0.315557503,10.8277923 -1.13686838e-13,10.1477865 -1.13686838e-13,9.431409 L-1.13686838e-13,7.14048369 C-1.13686838e-13,5.12419195 1.63453677,3.48965517 3.65082851,3.48965517 L20.6880282,3.48965517 Z M8.39690558,9.48309865 C7.79807843,9.48309865 7.31148384,9.9636998 7.30180914,10.5602452 L7.30165703,14.5942586 C7.30165703,15.19914 7.79202414,15.6895071 8.39690558,15.6895071 C8.99573273,15.6895071 9.48232732,15.208906 9.49200202,14.6123606 L9.49215414,10.5783472 C9.49215414,9.97346577 9.00178702,9.48309865 8.39690558,9.48309865 Z" id="形状结合" fill="url(#linearGradient-2)"></path>
                    </g>
                </g>
            </g>
        </g>
    </g>
</svg>