<?xml version="1.0" encoding="UTF-8"?>
<svg width="42px" height="42px" viewBox="0 0 42 42" version="1.1" xmlns="http://www.w3.org/2000/svg" xmlns:xlink="http://www.w3.org/1999/xlink">
    <title>切片</title>
    <defs>
        <linearGradient x1="50%" y1="0%" x2="50%" y2="100%" id="linearGradient-1">
            <stop stop-color="#FF7941" offset="0%"></stop>
            <stop stop-color="#FF4240" offset="100%"></stop>
        </linearGradient>
    </defs>
    <g id="小油灯" stroke="none" stroke-width="1" fill="none" fill-rule="evenodd">
        <g id="浪潮美物纪精选" transform="translate(-24.000000, -319.000000)">
            <g id="编组-47" transform="translate(10.000000, 309.000000)">
                <g id="编组-35" transform="translate(14.000000, 10.000000)">
                    <rect id="矩形备份-10" stroke="#979797" fill="#D8D8D8" opacity="0" x="0.5" y="0.5" width="41" height="41"></rect>
                    <path d="M29.4859806,10.2445777 L29.5925926,10.3328974 L32.2427984,12.7494863 C32.6576132,13.1193723 32.9390947,13.6357332 32.9912428,14.2026946 L33,14.3934242 L33,26.7229591 C33,28.3668971 31.5514403,29.6984868 29.7572016,29.6984868 C28.0248333,29.6984868 26.614715,28.4571475 26.5195253,26.8918656 L26.5144033,26.7229591 L26.5144033,20.311601 C26.5144033,19.965004 26.2239369,19.6736617 25.8585486,19.6275116 L25.7572016,19.621147 L25,19.621147 L25,29.6984868 L25.2469136,29.6984868 C25.9382716,29.6984868 26.4979424,30.2081076 26.4979424,30.8492434 C26.4979424,31.4503082 26.0060442,31.9357837 25.3748955,31.9941202 L25.2469136,32 L10.2510288,32 C9.55967078,32 9,31.4903792 9,30.8492434 C9,30.2481786 9.49189815,29.7627032 10.1230469,29.7043666 L10.2510288,29.6984868 L10.4979424,29.6984868 L10.4979424,11.8617598 C10.4979424,10.9067101 11.3191213,10.1156814 12.3500386,10.042511 L12.5061728,10.0369886 L22.9917695,10.0369886 C24.0578091,10.0369886 24.9148213,10.7676277 24.9940242,11.7176716 L25,11.8617598 L25,17.3525126 L25.7407407,17.3525126 C27.4731091,17.3525126 28.8832274,18.5938519 28.978417,20.1591338 L28.9835391,20.3280404 L28.9835391,26.7393985 C28.9835391,27.1175042 29.3292181,27.4298524 29.7407407,27.4298524 C30.133059,27.4298524 30.4423868,27.1673932 30.491217,26.8324123 L30.4979424,26.7393985 L30.4979424,16.4319073 L29.0658436,16.4319073 C28.7860082,16.4319073 28.5061728,16.3332711 28.308642,16.1359985 C27.9287749,15.771803 27.8995544,15.2115023 28.2209803,14.8171367 L28.308642,14.7222118 L29.5761317,13.5056977 L27.8641975,11.9275173 C27.3868313,11.483654 27.3868313,10.7767607 27.8641975,10.3328974 C28.3074662,9.9207387 29.0062148,9.89129879 29.4859806,10.2445777 Z M19.2336654,21.0150281 C19.1186625,20.9767212 18.9650824,21.0150281 18.8884263,21.0916343 L18.8884263,21.0916343 L14.9374913,24.9587333 C14.8224959,25.0733885 14.8224959,25.1883016 14.8605749,25.3029492 C14.8991595,25.4178547 15.0141549,25.4944685 15.1294032,25.4944685 L15.1294032,25.4944685 L16.8555838,25.4944685 L16.1262755,28.4039789 C16.0879437,28.5571913 16.1625769,28.6513965 16.2570082,28.7186913 C16.3514395,28.7862364 16.513394,28.7862364 16.6250873,28.6721043 L16.6250873,28.6721043 L20.5760222,24.8052631 C20.6910176,24.6906079 20.6910176,24.5756948 20.6529387,24.4610472 C20.614354,24.3458839 20.4993586,24.269528 20.3841103,24.269528 L20.3841103,24.269528 L18.6579297,24.269528 L19.3872454,21.3595019 C19.4255698,21.2065398 19.3489062,21.0533274 19.2336654,21.0150281 Z M21.3950617,12.305623 L14.1028807,12.305623 C13.5344307,12.305623 13.0663557,12.6922772 13.0064722,13.1982692 L13,13.3084252 L13,18.1580422 C13,18.6797185 13.4301783,19.1011512 13.9827185,19.1550236 L14.1028807,19.1608444 L21.3950617,19.1608444 C21.9635117,19.1608444 22.4315866,18.7741902 22.4914702,18.2681982 L22.4979424,18.1580422 L22.4979424,13.3084252 C22.4979424,12.7494863 22.0041152,12.305623 21.3950617,12.305623 Z" id="形状结合" fill="url(#linearGradient-1)" fill-rule="nonzero"></path>
                </g>
            </g>
        </g>
    </g>
</svg>