<?xml version="1.0" encoding="UTF-8"?>
<svg width="42px" height="42px" viewBox="0 0 42 42" version="1.1" xmlns="http://www.w3.org/2000/svg" xmlns:xlink="http://www.w3.org/1999/xlink">
    <title>切片</title>
    <defs>
        <linearGradient x1="50%" y1="0%" x2="50%" y2="100%" id="linearGradient-1">
            <stop stop-color="#799BF2" offset="0%"></stop>
            <stop stop-color="#3F5AE1" offset="100%"></stop>
        </linearGradient>
    </defs>
    <g id="小油灯" stroke="none" stroke-width="1" fill="none" fill-rule="evenodd">
        <g id="浪潮美物纪精选" transform="translate(-168.000000, -319.000000)">
            <g id="编组-47" transform="translate(10.000000, 309.000000)">
                <g id="编组-35" transform="translate(157.000000, 10.000000)">
                    <g id="编组-37" transform="translate(1.000000, 0.000000)">
                        <rect id="矩形备份-12" stroke="#979797" fill="#D8D8D8" opacity="0" x="0.5" y="0.5" width="41" height="41"></rect>
                        <g id="编组-13" transform="translate(11.000000, 8.000000)" fill-rule="nonzero">
                            <path d="M20.15979,15.4932863 C20.1037496,13.8887617 19.670174,12.3786209 18.9504975,11.0513487 C18.2514675,9.76536939 13.3614209,3.04860443 12.4473781,1.96088486 C10.7361573,-0.0754839927 9.50049339,-0.0754839927 7.7455446,2.18087875 C5.9905958,4.43724148 2.62504946,8.45874365 1.21519144,11.0483992 C0.439474573,12.4759542 0,14.1129232 0,15.856074 C0,21.3922739 4.45963459,25.8843529 9.98108694,25.9403933 C10.2347434,25.9433428 10.4883999,25.9344943 10.7361573,25.9197468 C14.8742971,25.6513429 18.3694472,22.8493238 19.646578,19.0474263 C19.9680729,18.0917903 20.147992,17.0771645 20.1656889,16.0182962 C20.1686384,15.8413266 20.1656889,15.6673064 20.15979,15.4932863 Z M18.6290027,16.7763161 C18.1039928,21.0058902 14.4407215,24.2857273 10.0902182,24.2444343 C9.60355174,24.2385354 9.12868324,24.1942929 8.66856221,24.1117071 L8.58007739,24.0940102 C4.63955371,23.3477882 1.660565,19.8850825 1.660565,15.7292458 L1.660565,15.7085993 C1.66351449,14.2810444 2.66634237,13.042257 4.05555394,12.7207622 C4.50682649,12.6145804 4.97874549,12.5614895 5.46246247,12.5614895 C7.3442395,12.5614895 9.03134994,13.3961962 10.172804,14.7175694 C10.2406424,14.8267007 10.3114302,14.9328825 10.3851676,15.0361148 C10.7450058,14.8208017 11.12844,14.6408826 11.5295712,14.5022564 C12.1666618,14.2810444 12.8538939,14.1601151 13.5676714,14.1601151 C15.6529635,14.1601151 17.4993466,15.186539 18.6260532,16.7645181 C18.6290027,16.7674676 18.6290027,16.7704171 18.6290027,16.7763161 L18.6290027,16.7763161 Z" id="形状" fill="url(#linearGradient-1)"></path>
                            <path d="M18.6290027,16.7645181 L18.6290027,16.7763161 C17.6999122,17.3308209 16.6144984,17.6464168 15.4553474,17.6464168 C13.5735704,17.6464168 11.8864599,16.81171 10.7450058,15.4903368 C10.6181776,15.3428621 10.5001978,15.1924379 10.3881171,15.0361148 C10.7479553,14.8208017 11.1313895,14.6408826 11.5325207,14.5022564 C12.1696113,14.2810444 12.8568434,14.1601151 13.5706209,14.1601151 C15.655913,14.1601151 17.5022961,15.186539 18.6290027,16.7645181 L18.6290027,16.7645181 Z" id="路径" fill="#7795EB"></path>
                        </g>
                    </g>
                </g>
            </g>
        </g>
    </g>
</svg>