<?xml version="1.0" encoding="UTF-8"?>
<svg width="42px" height="42px" viewBox="0 0 42 42" version="1.1" xmlns="http://www.w3.org/2000/svg" xmlns:xlink="http://www.w3.org/1999/xlink">
    <title>切片</title>
    <defs>
        <linearGradient x1="50%" y1="0%" x2="50%" y2="100%" id="linearGradient-1">
            <stop stop-color="#FDDD64" offset="0%"></stop>
            <stop stop-color="#FDAA48" offset="100%"></stop>
        </linearGradient>
    </defs>
    <g id="小油灯" stroke="none" stroke-width="1" fill="none" fill-rule="evenodd">
        <g id="浪潮美物纪精选" transform="translate(-310.000000, -399.000000)">
            <g id="编组-47" transform="translate(10.000000, 309.000000)">
                <g id="编组-48" transform="translate(300.000000, 90.000000)">
                    <rect id="矩形备份-9" stroke="#979797" fill="#D8D8D8" opacity="0" x="0.5" y="0.5" width="41" height="41"></rect>
                    <path d="M18.8558859,10.4533174 L11.1551044,10.4533174 C10.5172489,10.4533174 10,10.9636617 10,11.5926648 L10,19.1861178 C10,19.8151463 10.5172489,20.3254906 11.1551044,20.3254906 L18.8558859,20.3254906 C19.4929704,20.3254906 20.0109389,19.8151463 20.0109389,19.1861432 L20.0109389,11.5926648 C20.0109389,10.9636364 19.4929447,10.4533174 18.8558859,10.4533174 Z M30.6944529,22.1283591 L22.9934144,22.1283591 C22.3555589,22.1283591 21.8385927,22.6381712 21.8385927,23.2671743 L21.8385927,30.8611341 C21.8385927,31.4901879 22.3555589,32 22.9934401,32 L30.6944786,32 C31.3318201,32 31.8493003,31.4901879 31.8493003,30.8611595 L31.8493003,23.2671996 C31.8493003,22.6381712 31.3317944,22.1283591 30.6944529,22.1283591 Z M32.4359629,13.3605592 L26.2124773,10.1205558 C25.6975927,9.85221765 25.0591976,10.0470087 24.7866056,10.5542864 L21.5006475,16.6928386 C21.2290578,17.2016623 21.4263253,17.8301839 21.9420065,18.0995358 L28.1656977,21.3390323 C28.681122,21.6073705 29.3205194,21.4125795 29.5926231,20.9047695 L32.8775789,14.7672563 C33.1499653,14.258458 32.9526721,13.6289227 32.4359629,13.3605845 L32.4359629,13.3605592 Z M18.8558859,22.1283591 L11.1551044,22.1283591 C10.5172489,22.1283591 10,22.6381712 10,23.2671743 L10,30.8611341 C10,31.4901879 10.5172489,32 11.1551044,32 L18.8558859,32 C19.4929704,32 20.0109389,31.4901879 20.0109389,30.8611595 L20.0109389,23.2671996 C20.0109389,22.6381712 19.4929447,22.1283591 18.8558859,22.1283591 Z" id="形状" fill="url(#linearGradient-1)" fill-rule="nonzero"></path>
                </g>
            </g>
        </g>
    </g>
</svg>