<?xml version="1.0" encoding="UTF-8"?>
<svg width="42px" height="42px" viewBox="0 0 42 42" version="1.1" xmlns="http://www.w3.org/2000/svg" xmlns:xlink="http://www.w3.org/1999/xlink">
    <title>切片</title>
    <defs>
        <linearGradient x1="50%" y1="0%" x2="50%" y2="100%" id="linearGradient-1">
            <stop stop-color="#81DCFF" offset="0%"></stop>
            <stop stop-color="#3BA3EA" offset="100%"></stop>
        </linearGradient>
    </defs>
    <g id="小油灯" stroke="none" stroke-width="1" fill="none" fill-rule="evenodd">
        <g id="浪潮美物纪精选" transform="translate(-24.000000, -399.000000)">
            <g id="编组-47" transform="translate(10.000000, 309.000000)">
                <g id="编组-44" transform="translate(14.000000, 90.000000)">
                    <rect id="矩形" stroke="#979797" fill="#D8D8D8" opacity="0" x="0.5" y="0.5" width="41" height="41"></rect>
                    <path d="M26.6702146,11.1851625 C27.073307,11.4584908 27.4140975,11.7769029 27.6946714,12.1393641 C27.9743638,12.5019978 28.202138,12.8527299 28.3769188,13.1911937 C28.5700378,13.5945992 28.7189562,13.9971422 28.8221049,14.400138 C28.8931137,14.3839026 28.9886735,14.400138 29.1125895,14.4483698 C29.2170711,14.4807544 29.3565948,14.5374597 29.5314617,14.6175155 C29.7070165,14.6983044 29.943132,14.819132 30.2400445,14.9802139 C30.5205109,15.1571431 30.748801,15.3191521 30.9228939,15.4636105 C31.0975243,15.6090823 31.2285562,15.7461668 31.3163552,15.8746054 C31.4215247,16.0195381 31.5007458,16.1569245 31.5528576,16.2862471 L11.445745,16.2862471 C11.4984803,16.1728365 11.5690376,16.0521599 11.6556756,15.9231607 C11.743883,15.8099225 11.8570283,15.6852571 11.9978205,15.548345 C12.1374302,15.4113467 12.3208964,15.262533 12.548563,15.1010631 C12.7762297,14.9559794 12.9899009,14.8390975 13.1910817,14.7504819 C13.3924989,14.6622545 13.5634962,14.5852172 13.7031059,14.520599 C13.8778868,14.4567571 14.0355551,14.4080509 14.1758742,14.375925 C14.2803558,14.0050551 14.4298762,13.6342713 14.6223932,13.2634229 C14.779524,12.9411945 14.9857354,12.5993886 15.2392859,12.2363884 C15.492514,11.8736038 15.8120212,11.5470847 16.1975926,11.256939 C16.6523239,10.9188632 17.1815467,10.6651986 17.7854115,10.4955785 C18.3895987,10.3262819 18.9705464,10.2013793 19.5297377,10.1201592 C20.1786844,10.040319 20.8349834,10 21.4998173,10 C21.8845287,10 22.295812,10.0124191 22.7334952,10.0361146 C23.1716514,10.060651 23.6167729,10.113001 24.0721277,10.1936174 C24.527246,10.2739319 24.9730555,10.3947811 25.4107387,10.556402 C25.8477984,10.7170958 26.2691644,10.9270348 26.6702146,11.1851841 L26.6702146,11.1851625 Z M21.4998173,11.112114 C20.9400024,11.1442614 20.4149503,11.1922561 19.9246179,11.2571114 C19.5051222,11.3211906 19.0807465,11.410108 18.6523505,11.5232814 C18.2230947,11.6358943 17.8865608,11.7893436 17.6412226,11.9820554 C17.3608852,12.2082083 17.1382492,12.4414331 16.9716806,12.6830452 C16.805714,12.9252178 16.6697375,13.1428325 16.5648045,13.3363852 C16.4421569,13.5778463 16.3459521,13.8039129 16.2762763,14.0133992 C16.7835708,13.9648439 17.326359,13.9165473 17.9035874,13.8677549 C18.392845,13.8358447 18.9487041,13.8001182 19.5706274,13.7593464 C20.1923143,13.7191137 20.8349834,13.6987601 21.4998818,13.6987601 C22.1995428,13.6987601 22.8686333,13.7191137 23.5080347,13.7593464 C24.1461462,13.8000966 24.7022634,13.8358447 25.1737848,13.8677549 C25.734739,13.9163749 26.2514284,13.9648439 26.7231863,14.0133992 C26.652887,13.739381 26.5484914,13.4729092 26.4081722,13.215687 C26.286277,12.9902888 26.1334244,12.7602549 25.9490983,12.5264911 C25.7656536,12.2924038 25.524185,12.0874454 25.2266705,11.9095028 C24.6848283,11.5873606 24.0810925,11.3779606 23.4155922,11.2815831 C22.7515323,11.1852057 22.1120449,11.1281985 21.4998173,11.112114 L21.4998173,11.112114 Z M31.1065751,18.0023482 C31.702077,18.0023482 32,18.2924293 32,18.8723758 C32,19.1146131 31.9246486,19.3157553 31.7767405,19.4768372 C31.627822,19.6383072 31.4390243,19.7187511 31.2121961,19.7187511 L30.451437,19.7187511 L30.451437,27.0925543 C30.451437,27.4628637 30.3890275,27.8257992 30.2665089,28.1798732 C30.1445492,28.5346372 29.8551611,28.921182 29.4006662,29.340715 C29.1554785,29.5506756 28.9200725,29.7114341 28.6913095,29.8247584 C28.4651907,29.9371341 28.2542497,30.0259006 28.0618833,30.0900444 C27.8520172,30.1548135 27.6419362,30.2036707 27.4323711,30.2350634 L27.4323711,31.2507568 C27.4323711,31.4762844 27.3356504,31.6537742 27.1445308,31.7827734 C26.9507884,31.9110611 26.732624,31.9839371 26.4872213,32 C26.2421411,32 26.0239122,31.9276199 25.8306858,31.7827734 C25.6377174,31.637776 25.5416201,31.4601568 25.5416201,31.2507568 L25.5416201,30.3079826 L17.5891108,30.3079826 L17.5891108,31.2509078 C17.5891108,31.4764569 17.4834039,31.6459044 17.2736883,31.7584526 C17.0635212,31.8714536 16.8534402,31.9276199 16.6433376,31.9276199 C16.3981714,31.9276199 16.1838122,31.8631526 16.0007545,31.7340672 C15.8171378,31.6050033 15.7246738,31.4279879 15.7246738,31.2026759 C15.7246738,31.1219948 15.7203311,31.0298864 15.7118178,30.9244965 C15.7027455,30.8196456 15.6988758,30.7106118 15.6988758,30.5983655 L15.6988758,30.2106564 C15.5587072,30.2106564 15.418388,30.1871334 15.2790147,30.1387506 C15.1557222,30.1062798 15.0161769,30.0581989 14.8588096,29.9939041 C14.7012273,29.929286 14.5433226,29.8484324 14.3862133,29.7519902 C13.8263984,29.3972047 13.4106865,28.9906298 13.1398083,28.5308425 C12.8680703,28.071206 12.7322442,27.5117855 12.7322442,26.8505542 L12.7322442,26.3913921 C12.7322442,26.1333937 12.7284605,25.8316697 12.7190013,25.4845599 C12.7101872,25.1020248 12.7058227,24.7193997 12.7059088,24.3367625 L12.7059088,19.7189667 L11.997885,19.7189667 C11.7174831,19.7189667 11.4808947,19.6459613 11.2887002,19.501201 C11.0961832,19.3558802 11,19.1464371 11,18.8726561 C11,18.6148949 11.074728,18.405344 11.2231735,18.2440249 C11.3716405,18.0831155 11.5941261,18.0023482 11.892264,18.0023482 L31.1065751,18.0023482 L31.1065751,18.0023482 Z M22.7063214,26.222462 L20.8168604,26.222462 L20.8168604,27.8664848 L22.7063214,27.8664848 L22.7063214,26.222462 Z" id="形状" fill="url(#linearGradient-1)" fill-rule="nonzero"></path>
                </g>
            </g>
        </g>
    </g>
</svg>