<?xml version="1.0" encoding="UTF-8"?>
<svg width="42px" height="42px" viewBox="0 0 42 42" version="1.1" xmlns="http://www.w3.org/2000/svg" xmlns:xlink="http://www.w3.org/1999/xlink">
    <title>切片</title>
    <defs>
        <linearGradient x1="50%" y1="0%" x2="50%" y2="100%" id="linearGradient-1">
            <stop stop-color="#F27198" offset="0%"></stop>
            <stop stop-color="#FC3C74" offset="100%"></stop>
        </linearGradient>
    </defs>
    <g id="小油灯" stroke="none" stroke-width="1" fill="none" fill-rule="evenodd">
        <g id="浪潮美物纪精选" transform="translate(-168.000000, -399.000000)">
            <g id="编组-47" transform="translate(10.000000, 309.000000)">
                <g id="编组-46" transform="translate(158.000000, 90.000000)">
                    <rect id="矩形备份-7" stroke="#979797" fill="#D8D8D8" opacity="0" x="0.5" y="0.5" width="41" height="41"></rect>
                    <path d="M13.1678149,27.1368421 L11.9045713,32 L10.8710083,32 L10.8710083,27.1368421 L13.1678149,27.1368421 Z M32.1164697,27.1368421 L32.1164697,32 L31.197747,32 L29.9345034,27.1368421 L32.1164697,27.1368421 Z M33.4945537,17.9894737 C34.4003366,17.9894737 35.0828631,18.7773291 34.9918536,19.7982121 L34.987478,19.8421053 L34.987478,24.4736842 C34.987478,25.5 34.3191579,26.3017012 33.5310127,26.3257596 L33.4945537,26.3263158 L9.49292431,26.3263158 C8.70122203,26.3263158 8.02090642,25.5401648 8.00047255,24.5208911 L8,24.4736842 L8,19.8421053 C8,18.8 8.68904199,17.9894737 9.60776465,17.9894737 C10.3994669,17.9894737 11.0797825,18.7756247 11.1002164,19.7948983 L11.100689,19.8421053 L11.100689,22.1578947 C11.100689,22.381203 11.2074729,22.6045113 11.4210408,22.620177 L11.44521,22.6210526 L31.6571084,22.6210526 C31.8785861,22.6210526 31.99328,22.4057197 32.0011899,22.1826962 L32.0016294,22.1578947 L32.0016294,19.8421053 C32.0016294,18.8 32.6906713,17.9894737 33.4945537,17.9894737 Z M29.2454614,10 C30.8371484,10 32.2037254,11.5887937 32.2308977,13.5305265 L32.23131,13.5894737 L32.23131,17.6421053 C31.6707798,18.2072682 31.3291233,18.8827724 31.3131717,19.7763321 L31.3125874,19.8421053 L31.3125874,21.6947368 L11.9045713,21.6947368 L11.9045713,19.8421053 C11.9045713,18.9368421 11.5755324,18.2527512 10.9174546,17.6817597 L10.8710083,17.6421053 L10.8710083,13.5894737 C10.8710083,11.6407368 12.2216684,10.0324558 13.808694,10.000485 L13.8568569,10 L29.2454614,10 Z" id="形状" fill="url(#linearGradient-1)" fill-rule="nonzero"></path>
                </g>
            </g>
        </g>
    </g>
</svg>