<?xml version="1.0" encoding="UTF-8"?>
<svg width="20px" height="20px" viewBox="0 0 20 20" version="1.1" xmlns="http://www.w3.org/2000/svg" xmlns:xlink="http://www.w3.org/1999/xlink">
    <title>xyd/zhongxin/jinfen_icon</title>
    <g id="xyd/zhongxin/jinfen_icon" stroke="none" stroke-width="1" fill="none" fill-rule="evenodd">
        <g id="编组" fill-rule="nonzero">
            <path d="M9.71211473,19.9860873 C15.071133,19.9860873 19.4153111,15.897617 19.4153111,10.8536672 C19.4153111,5.80971749 19.9250143,5.70241152 9.71211473,5.70241152 C-0.500784835,5.70241152 0.00891837008,5.80971747 0.00891837008,10.8536672 C0.00891837008,15.897617 4.35309645,19.9860873 9.71211473,19.9860873 Z" id="路径" fill="#FF5C00"></path>
            <path d="M0.00891837008,9.14133848 C0.00891837008,14.1850348 4.35318735,18.2737586 9.71211473,18.2737586 C15.0710421,18.2737586 19.4153111,14.1850348 19.4153111,9.14133848 C19.4153111,4.09764214 15.0710421,0.00891839683 9.71211473,0.00891839683 C4.35318735,0.00891839683 0.00891837008,4.09764214 0.00891837008,9.14133848 Z" id="路径" fill="#FFCC00"></path>
            <path d="M17.9586901,4.32626999 C18.2892768,4.82613009 18.5684746,5.35813566 18.7920234,5.91416952 L6.83939782,17.8667951 C6.24086075,17.6927764 5.65993736,17.4630824 5.10423801,17.180722 L17.9586901,4.32626999 Z M12.8947631,0.51177226 C14.4364298,1.01519692 15.8011558,1.87421519 16.8787814,2.984375 L3.61622432,16.2475029 C2.37021974,15.2988727 1.37878138,14.0665668 0.753210616,12.6538955 L12.8947631,0.51177226 Z" id="形状" fill="#FFE3B6"></path>
            <path d="M1.15047089,8.85595034 C1.15047089,13.1115691 4.9836494,16.5614298 9.71211473,16.5614298 C14.44058,16.5614298 18.2737586,13.1115691 18.2737586,8.85595034 C18.2737586,4.60033155 14.44058,1.15047089 9.71211473,1.15047089 C4.9836494,1.15047089 1.15047089,4.60033155 1.15047089,8.85595034 L1.15047089,8.85595034 Z" id="路径" fill="#FF7325"></path>
            <path d="M1.72124714,8.85595034 C1.72124714,12.7963381 5.29888042,15.9906535 9.71211473,15.9906535 C14.125349,15.9906535 17.7029823,12.7963381 17.7029823,8.85595034 C17.7029823,4.91556257 14.125349,1.72124714 9.71211473,1.72124714 C5.29888042,1.72124714 1.72124714,4.91556257 1.72124714,8.85595034 Z" id="路径" fill="#FFB329"></path>
            <path d="M17.6459047,9.71211473 C17.1721604,13.2486444 13.800585,15.9906535 9.71211473,15.9906535 C5.62364442,15.9906535 2.25206906,13.2486444 1.77832478,9.71211473 L17.6459047,9.71211473 Z" id="路径" fill="#FF9B1A"></path>
            <path d="M9.71211473,1.72124714 C12.6036672,1.72124714 15.1362015,3.09225171 16.5391695,5.14590467 L2.8856307,5.14590467 C4.28859873,3.09225171 6.82113297,1.72124714 9.71268549,1.72124714 L9.71211473,1.72124714 Z" id="路径" fill="#FFCC00"></path>
            <path d="M11.7360873,9.6596033 L14.2703339,9.28688642 L14.2783248,10.382206 C14.1070919,11.0522974 13.8388271,11.6122289 13.4712471,12.0614298 C13.1070849,12.5088395 12.6372961,12.8585821 12.104238,13.0791238 C11.5597175,13.3074343 10.8667951,13.4221604 10.0260417,13.4221604 C9.00549371,13.4221604 8.17216037,13.282891 7.52490012,13.0037814 C6.87821062,12.7246718 6.31999144,12.234375 5.85024259,11.5317494 C5.38049374,10.8296946 5.14590467,9.93072204 5.14590467,8.83483163 C5.14590467,7.37364442 5.55914667,6.25149829 6.38505993,5.46668094 C7.21154396,4.6818636 8.37992295,4.28974029 9.89133848,4.28974029 C11.0739869,4.28974029 12.0037814,4.51462612 12.680722,4.96382705 C12.9472746,5.14076769 13.4432791,5.45469464 14.1681649,5.90560788 C14.1590325,6.34624714 14.1658818,6.72295947 14.1887129,7.0346033 L11.6270691,7.571133 C11.5374572,7.30172662 11.4432791,7.10537958 11.3451056,6.98095034 C11.1873282,6.77577323 10.9833614,6.61072247 10.749786,6.49921519 C10.5033495,6.38415913 10.2340593,6.32639832 9.96211473,6.33026541 C9.30458048,6.33026541 8.80058505,6.57912385 8.45069919,7.07684075 C8.185859,7.446133 8.05343892,8.02604166 8.05343892,8.81656678 C8.05343892,9.79601884 8.21154393,10.4672517 8.52718322,10.8302654 C8.84339327,11.1938499 9.28745719,11.3753567 9.859375,11.3753567 C10.4141695,11.3753567 10.8336901,11.2286672 11.1179366,10.935859 C11.4016125,10.6430508 11.6076627,10.2172517 11.7360873,9.6596033 L11.7360873,9.6596033 Z" id="路径" fill="#FF5C00"></path>
            <path d="M11.7360873,8.51805081 L14.2783248,9.24065355 C14.1070919,9.91074486 13.8388271,10.4706764 13.4712471,10.9198773 C13.1070849,11.367287 12.6372961,11.7170296 12.104238,11.9375714 C11.5597175,12.1658818 10.8667951,12.2806079 10.0260417,12.2806079 C9.00549371,12.2806079 8.17216037,12.1413385 7.52490012,11.8622289 C6.87821062,11.5831193 6.31999144,11.0928225 5.85024259,10.3901969 C5.38049374,9.68814212 5.14590467,8.78916952 5.14590467,7.69327911 C5.14590467,6.2320919 5.55914667,5.10994577 6.38505993,4.32512842 C7.21154396,3.54031108 8.37992295,3.14818779 9.89133848,3.14818779 C11.0739869,3.14818779 12.0037814,3.37307363 12.680722,3.82227453 C13.3570919,4.27204623 13.8599458,4.96211473 14.1887129,5.89305081 L11.6270691,6.42958048 C11.5374572,6.1601741 11.4432791,5.96382705 11.3451056,5.83939782 C11.1873282,5.63422071 10.9833614,5.46916995 10.749786,5.35766267 C10.5033495,5.24260661 10.2340593,5.1848458 9.96211473,5.18871289 C9.30458048,5.18871289 8.80058505,5.43757133 8.45069919,5.93528823 C8.185859,6.30458048 8.05343892,6.88448914 8.05343892,7.67501426 C8.05343892,8.65446632 8.21154393,9.32569919 8.52718322,9.68871289 C8.84339327,10.0522974 9.28745719,10.2338042 9.859375,10.2338042 C10.4141695,10.2338042 10.8336901,10.0871147 11.1179366,9.79430651 C11.4016125,9.50149829 11.6076627,9.07569919 11.7360873,8.51805081 L11.7360873,8.51805081 Z" id="路径" fill="#FFDC96"></path>
            <path d="M12.6801512,3.82227453 C13.1847175,4.15732021 13.5928225,4.62649829 13.9038955,5.22923801 L12.9877997,6.14419234 L11.6270691,6.42958048 C11.5374572,6.1601741 11.4432791,5.96382705 11.3451056,5.83939782 C11.1873282,5.63422071 10.9833614,5.46916995 10.749786,5.35766267 C10.5033495,5.24260661 10.2340593,5.1848458 9.96211473,5.18871289 C9.30458048,5.18871289 8.80058505,5.43757133 8.45069919,5.93528823 C8.185859,6.30458048 8.05343892,6.88448914 8.05343892,7.67501426 C8.05343892,8.65446632 8.21154393,9.32569919 8.52718322,9.68871289 C8.67501426,9.85880421 8.85024259,9.98894119 9.05400971,10.0791238 L7.35138412,11.7811786 C6.77775399,11.4923658 6.27718322,11.0288955 5.85024259,10.3901969 C5.58483163,9.99293664 5.39419237,9.53346177 5.27946632,9.01005993 L11.055722,3.23380423 C11.7024115,3.33654396 12.2440782,3.532891 12.680722,3.82227453 L12.6801512,3.82227453 Z" id="路径" fill="#FFECBD"></path>
        </g>
    </g>
</svg>