<?xml version="1.0" encoding="UTF-8"?>
<svg width="21px" height="20px" viewBox="0 0 21 20" version="1.1" xmlns="http://www.w3.org/2000/svg" xmlns:xlink="http://www.w3.org/1999/xlink">
    <title>切片</title>
    <defs>
        <linearGradient x1="50%" y1="0%" x2="50%" y2="100%" id="linearGradient-1">
            <stop stop-color="#59B3FF" offset="0%"></stop>
            <stop stop-color="#1C87F0" offset="100%"></stop>
        </linearGradient>
    </defs>
    <g id="小油灯" stroke="none" stroke-width="1" fill="none" fill-rule="evenodd">
        <g id="个人中心_中油内购" transform="translate(-20.000000, -575.000000)" fill="url(#linearGradient-1)" fill-rule="nonzero">
            <g id="wode/zhongyouneigou_icon" transform="translate(20.000000, 575.000000)">
                <path d="M13.3632629,0.0680972604 C13.5193662,0.110617573 13.6754695,0.159212216 13.8274648,0.209831636 C14.2948618,0.362814771 14.6827363,0.67578027 14.9362703,1.10037791 L15.0249413,1.26474034 C15.2221244,1.67172048 15.5651408,2.0625024 15.9903169,2.36419414 C16.3705986,2.6332002 16.7931338,2.81890116 17.2023031,2.89579545 L17.4055164,2.92505731 C17.9559859,2.97972629 18.4345657,3.23282339 18.7570423,3.63575397 C18.8597418,3.76331491 18.9603873,3.89695017 19.0569249,4.02856067 C19.349048,4.43171622 19.4756347,4.93726049 19.4150462,5.43996063 L19.3835094,5.62813433 C19.2869718,6.07965956 19.3239437,6.6081263 19.4882629,7.1143205 C19.6356367,7.57141386 19.8757932,7.98200063 20.1729559,8.28775379 L20.3036972,8.41220242 C20.7411972,8.79691001 20.9876761,9.30917854 20.997946,9.8538435 L21,10.1292131 C20.9945227,10.6187592 20.7942966,11.0843079 20.4339439,11.456178 L20.2913732,11.591102 C19.9339789,11.9029176 19.6402582,12.3605172 19.467723,12.8829096 C19.3180751,13.3341455 19.2680248,13.7987698 19.3240395,14.2143036 L19.3609155,14.4176904 C19.4923709,14.992727 19.3773474,15.5859866 19.0446009,16.0435861 L18.8967136,16.2420143 L18.8967136,16.2420143 C18.5879988,16.6465647 18.1195657,16.9182695 17.5947321,17.0039904 L17.4178404,17.0256029 C16.9372066,17.0640737 16.4216549,17.2625018 15.965669,17.5844413 C15.5684786,17.8643667 15.2451997,18.2171524 15.0412409,18.5912536 L14.9612676,18.7527375 C14.7188967,19.2933529 14.2711268,19.7023578 13.7309272,19.8744638 L13.6261737,19.9068603 L13.6261737,19.9068603 C13.4125587,19.9696283 13.2009977,20 12.9914906,20 C12.688527,20 12.3926953,19.9339135 12.1253912,19.8052558 L11.9686033,19.7205808 C11.5516432,19.4674837 11.0073357,19.3297989 10.4322183,19.3297989 C9.96214789,19.3297989 9.50716801,19.4235171 9.128072,19.5969277 L8.94512911,19.6902092 C8.43368545,19.981777 7.8318662,20.0506194 7.29577465,19.8805382 L7.05545775,19.8015719 L7.05545775,19.8015719 C6.58806077,19.6413895 6.20180911,19.3180252 5.95584866,18.8812511 L5.87030516,18.712242 C5.67723005,18.2870388 5.32394366,17.8780339 4.8782277,17.5621687 C4.50674883,17.2983693 4.08999832,17.1148997 3.68747605,17.0347114 L3.48767606,17.0033303 C2.93309859,16.9405623 2.4278169,16.6611431 2.10123239,16.2339152 C1.9903169,16.090156 1.88350939,15.9403225 1.78080986,15.790489 C1.51607329,15.4017319 1.4038899,14.9329836 1.46012811,14.4539253 L1.48914319,14.2739312 C1.53472871,14.0482241 1.5473919,13.804487 1.52818711,13.5544126 L1.52200704,13.5551355 L1.51173709,13.5186895 L1.52481829,13.5140791 C1.50380395,13.2811945 1.45534344,13.0433838 1.38028169,12.8100176 C1.24647887,12.3952276 1.03269618,12.0146522 0.76868353,11.7180195 L0.632629108,11.5769285 C0.23620892,11.1982953 0.0123239437,10.7062745 0.00205399061,10.1899564 L0,10.0239247 L0,10.0239247 C0,9.90041336 0.00205399061,9.77285242 0.00821596244,9.64529149 C0.0264736568,9.18634208 0.207021967,8.7497902 0.522451812,8.39820674 L0.647007042,8.27046804 C0.973591549,7.96270197 1.24266432,7.52737496 1.40287559,7.04345331 C1.54019953,6.63213437 1.59301643,6.20147674 1.55744587,5.8114091 L1.532277,5.62003522 C1.43984742,5.09966759 1.55487089,4.57727518 1.85680751,4.15004727 C1.98210094,3.97186692 2.11766432,3.79166178 2.25528169,3.61955575 C2.54192749,3.26139524 2.94379963,3.0168222 3.39742444,2.91854414 L3.56983568,2.88861133 C4.01555164,2.8298928 4.49207746,2.63551423 4.90903756,2.3419216 C5.26995305,2.08853524 5.57201543,1.76969488 5.7777139,1.43130332 L5.87235915,1.26069079 C6.10651408,0.792967352 6.49266432,0.44673052 6.96097418,0.280698824 C7.14788732,0.213881189 7.34096244,0.153137886 7.53403756,0.0984689123 C7.96126761,-0.0257173976 8.4274474,0.0100786563 8.86333295,0.195902616 L9.02523474,0.272599716 C9.42370892,0.481151726 9.92488263,0.594539226 10.4363263,0.594539226 C10.88527,0.594539226 11.3236502,0.506771351 11.6932608,0.345261458 L11.8720657,0.258426279 C12.3506455,0.00127962625 12.8805751,-0.0675627847 13.3632629,0.0680972604 Z M10.6006455,10.9998672 L3.16467308,13.0925673 C3.22651483,13.5037719 3.23267687,13.9129679 3.18254924,14.3072279 L3.13438967,14.5999203 C3.12206573,14.6606636 3.11179577,14.7740511 3.17341549,14.8651661 C3.2596831,14.9907022 3.35005869,15.1162384 3.44248826,15.237725 C3.49332453,15.3045426 3.56495745,15.3337753 3.62185941,15.3476324 L3.67253521,15.3571868 C4.42840376,15.4422274 5.18221831,15.7398696 5.85592723,16.217717 C6.47121153,16.6532689 6.95990915,17.1992088 7.28451292,17.804342 L7.39847418,18.0339417 C7.42517606,18.0926603 7.48679577,18.1979487 7.60181925,18.2364194 L7.80311033,18.303237 L7.80311033,18.303237 C7.89841549,18.3323938 7.9924061,18.3058288 8.05668779,18.2764128 L8.09888498,18.2546424 C8.77670188,17.8739844 9.5818662,17.6715067 10.4322183,17.6715067 C11.3113263,17.6715067 12.1698944,17.8982817 12.8477113,18.3072866 C12.913439,18.3477821 13.0181925,18.3538565 13.118838,18.32146 L13.2071596,18.2931132 L13.2071596,18.2931132 C13.3024648,18.2623366 13.3635915,18.1784298 13.3957981,18.1191443 L13.4146127,18.0805116 C13.7329812,17.3698149 14.2752347,16.7299855 14.9818075,16.2318904 C15.6135237,15.7873394 16.3101562,15.5011709 17.0111164,15.3989822 L17.274061,15.3693355 C17.3438967,15.3632611 17.4732981,15.3389638 17.5472418,15.2397498 L17.6725352,15.0716933 L17.6725352,15.0716933 C17.7316901,14.9907022 17.7330047,14.892865 17.7238028,14.8227591 L17.715669,14.7760759 C17.5788789,14.1795872 17.5820463,13.5371096 17.7202315,12.8934399 L10.6006455,10.9998672 Z M1.99576202,9.27526452 L1.80545775,9.46711113 C1.76232394,9.50760666 1.68838028,9.59264729 1.6842723,9.70805957 L1.67965082,9.86675145 L1.67965082,9.86675145 L1.67811033,10.0239247 C1.67811033,10.0664451 1.67811033,10.1130149 1.68016432,10.15756 C1.68221831,10.230452 1.72535211,10.3154926 1.80134977,10.3863598 C2.32922535,10.8905292 2.73591549,11.554656 2.97828638,12.3058482 C3.03819755,12.4902867 3.08683756,12.6759983 3.12415026,12.8617933 L8.53433099,10.6556551 C8.84859155,10.5280942 8.83215962,10.0826433 8.50762911,9.97937966 L2.76907989,8.12561622 C2.56521535,8.55511436 2.30377013,8.94383969 1.99576202,9.27526452 L1.99576202,9.27526452 Z M18.1478287,8.27379178 L12.901115,9.98140443 C12.5786385,10.0866928 12.5622066,10.5280942 12.8744131,10.6576799 L17.7707324,12.6810251 C17.7986461,12.5740171 17.8302797,12.4671124 17.8656103,12.3605172 C18.1346831,11.5506064 18.588615,10.8540832 19.1760563,10.3418147 C19.2643779,10.2648732 19.3136737,10.1778078 19.3157277,10.102891 L19.3136737,9.88219037 L19.3136737,9.88219037 C19.3120305,9.79472001 19.2525469,9.71761651 19.2077864,9.67161358 L19.1781103,9.64326671 C18.7579746,9.27270238 18.4087258,8.80722823 18.1478287,8.27379178 Z M3.78550469,4.52868053 C3.6971831,4.54082919 3.61913146,4.58132473 3.56778169,4.64611759 C3.45070423,4.79190152 3.33773474,4.941735 3.23298122,5.09156848 C3.18573944,5.15838612 3.16725352,5.24545152 3.18368545,5.3345417 C3.30897887,6.04523835 3.24325117,6.81262875 2.9967723,7.55774661 C2.96057144,7.66686904 2.92088432,7.7741013 2.87785694,7.87922438 L8.79518779,9.50153233 C9.12588028,9.59264729 9.39084507,9.22413791 9.19366197,8.94674349 L5.59711237,3.87254568 C5.02569839,4.22170211 4.40635454,4.44719351 3.78550469,4.52868053 Z M15.5370649,4.03719579 L12.252054,8.70984461 C12.0589789,8.98318948 12.3136737,9.34562452 12.6423122,9.26665823 L18.0021597,7.94610693 C17.958639,7.8378298 17.9185576,7.72720918 17.8820423,7.61444036 C17.6556468,6.91431754 17.5899191,6.19979631 17.6877443,5.53060342 L17.7321009,5.2818975 C17.7464789,5.21710464 17.7588028,5.09156848 17.6807512,4.98628009 C17.6006455,4.87491736 17.5164319,4.76355464 17.4301643,4.65624147 C17.3931925,4.61169638 17.3192488,4.57727518 17.2288732,4.56917607 C16.6543427,4.51163157 16.0786633,4.32950489 15.5370649,4.03719579 Z M12.6710681,1.71221602 C12.0986894,2.01998209 11.4353999,2.20104726 10.7346003,2.24191383 L10.8656103,8.38588032 C10.8738263,8.72401805 11.3031103,8.8677772 11.5167254,8.60455622 L15.3309344,3.91962037 C15.2196102,3.85264044 15.1099738,3.78092187 15.0023474,3.70459638 C14.4162754,3.28884221 13.942184,2.77069933 13.6175802,2.19567383 L13.5029343,1.97746178 C13.4741784,1.92076802 13.4105047,1.81952919 13.2893192,1.77903365 C13.1619718,1.73651334 13.0305164,1.6960178 12.899061,1.6615966 C12.8436033,1.64539838 12.7573357,1.66564615 12.6710681,1.71221602 Z M7.99823944,1.68589392 C7.83597418,1.73246378 7.67576291,1.78510798 7.51760563,1.83977695 C7.46420188,1.85799994 7.41079812,1.91469369 7.37382629,1.98961044 C7.04929577,2.64158856 6.53169014,3.22877383 5.88057512,3.68637339 L5.82473615,3.72267621 L9.75234742,8.54178813 C9.96596244,8.80500912 10.3952465,8.66124997 10.4034624,8.32513702 L10.558192,2.24921312 L10.4281103,2.25080664 L10.4281103,2.25080664 C9.63526995,2.25080664 8.87529343,2.07262628 8.22828638,1.73448856 C8.13996479,1.68791869 8.05164319,1.6696957 7.99823944,1.68589392 Z" id="形状"></path>
            </g>
        </g>
    </g>
</svg>