<?xml version="1.0" encoding="UTF-8"?>
<svg width="18px" height="18px" viewBox="0 0 18 18" version="1.1" xmlns="http://www.w3.org/2000/svg" xmlns:xlink="http://www.w3.org/1999/xlink">
    <title>切片</title>
    <g id="小油灯" stroke="none" stroke-width="1" fill="none" fill-rule="evenodd">
        <g id="01开店流程-资料准备备份" transform="translate(-34.000000, -346.000000)" fill="#7AB4D1" fill-rule="nonzero">
            <g id="编组-2" transform="translate(20.000000, 332.000000)">
                <g id="-xyd/smrz/sfz_icon" transform="translate(14.000000, 14.000000)">
                    <path d="M15.4340255,0 L2.57401206,0 C1.15137307,0 0,1.15111607 0,2.57142857 L0,11.5473214 C0,12.9676339 1.15137307,14.1227679 2.57401206,14.1227679 L5.2545211,14.1227679 C5.7106497,14.1227679 6.13261889,14.3638393 6.36369725,14.7575893 L7.89283322,17.3651786 C8.14199598,17.7890625 8.57200268,18 9.00200938,18 C9.43201608,18 9.86202277,17.7890625 10.1111855,17.3651786 L11.6423309,14.7555804 C11.8731803,14.3621789 12.2952996,14.1205848 12.751507,14.1207589 L15.4340255,14.1207589 C16.8526457,14.1207589 18,12.9696429 18,11.5533482 L18,2.56540179 C18,1.14910714 16.8526457,0 15.4340255,0 Z M4.18553248,10.3620536 L2.72270596,10.3620536 L2.72270596,4.76116071 L1.03081045,5.08861607 L1.03081045,3.87723214 L3.10046885,3.459375 L4.18553248,3.459375 L4.18553248,10.3620536 Z M11.2786336,10.3620536 L6.45411922,10.3620536 L6.45411922,9.06830357 C7.05693235,8.58415179 7.56329538,8.16227679 7.97119893,7.8046875 C8.37910248,7.44709821 8.70663094,7.13370536 8.95177495,6.86450893 C9.19691896,6.5953125 9.37173476,6.35825893 9.47421299,6.14933036 C9.57669123,5.94040179 9.62893503,5.7375 9.62893503,5.53861607 C9.62893503,5.1609375 9.52243804,4.90178571 9.31145345,4.76316964 C9.09845948,4.62455357 8.80509042,4.55424107 8.42531815,4.55424107 C8.20026792,4.55424107 7.95914267,4.57433036 7.70395177,4.61450893 C7.44876088,4.6546875 7.17146685,4.72098214 6.87407904,4.81339286 L6.87407904,3.61004464 C7.13931681,3.52366071 7.42866711,3.46138393 7.74012056,3.42120536 C8.05157401,3.38102679 8.37307435,3.3609375 8.70462157,3.3609375 C9.46818486,3.3609375 10.0609511,3.52165179 10.4849297,3.84308036 C10.9089082,4.16450893 11.1219022,4.65669643 11.1219022,5.31964286 C11.1219022,5.59888393 11.0897522,5.85803571 11.0274615,6.10111607 C10.9651708,6.34419643 10.8446082,6.59330357 10.6697924,6.85245536 C10.4949766,7.11160714 10.2478232,7.39084821 9.93436035,7.6921875 C9.61888814,7.99352679 9.20897522,8.34308036 8.70663094,8.74084821 L8.26858674,9.08839286 L8.26858674,9.16875 L11.2826524,9.16875 L11.2826524,10.3620536 L11.2786336,10.3620536 Z M16.2377763,9.96830357 C15.7494977,10.2957589 15.0221031,10.4604911 14.0535834,10.4604911 C13.4427328,10.4604911 12.9223041,10.4162946 12.4922974,10.3319196 L12.4922974,9.0984375 C12.751507,9.15066964 12.996651,9.19285714 13.2277294,9.22299107 C13.4588078,9.253125 13.7079705,9.2671875 13.9732083,9.2671875 C14.1781648,9.2671875 14.3730743,9.253125 14.5559277,9.22700893 C14.738781,9.20089286 14.8955124,9.15066964 15.0281313,9.07834821 C15.1607502,9.00602679 15.2672472,8.90758929 15.3456129,8.78504464 C15.4259879,8.6625 15.4641661,8.50178571 15.4641661,8.30290179 C15.4641661,7.93125 15.3154722,7.68214286 15.016075,7.5515625 C14.7166778,7.42299107 14.3027461,7.35669643 13.7722706,7.35669643 L13.2458138,7.35669643 L13.2458138,6.25178571 L13.7622237,6.25178571 C14.2464836,6.25178571 14.6302746,6.1875 14.9156062,6.05691964 C15.2009377,5.92834821 15.3436035,5.68727679 15.3436035,5.33571429 C15.3436035,5.02433036 15.2310784,4.81138393 15.0060281,4.69888393 C14.7809779,4.58638393 14.4755526,4.53013393 14.0917616,4.53013393 C13.8787676,4.53013393 13.6496986,4.54821429 13.4045546,4.584375 C13.1594106,4.62053571 12.9403885,4.66875 12.7474883,4.72901786 L12.7474883,3.56584821 C12.9062291,3.51361607 13.1292699,3.46540179 13.4146015,3.42120536 C13.699933,3.37901786 13.9852646,3.35691964 14.2705961,3.35691964 C14.6543871,3.35691964 15.0040188,3.3890625 15.3154722,3.45133929 C15.6269257,3.51361607 15.8921634,3.62008929 16.1111855,3.76875 C16.3302076,3.91741071 16.4969859,4.11428571 16.6135298,4.35535714 C16.7300737,4.5984375 16.7883456,4.89375 16.7883456,5.2453125 C16.7883456,5.6109375 16.699933,5.91629464 16.5251172,6.16540179 C16.3503014,6.41450893 16.0689886,6.60133929 15.6851976,6.72790179 L15.6851976,6.78816964 C16.1091762,6.87455357 16.4286671,7.06138393 16.6456798,7.35066964 C16.8606832,7.63995536 16.9691896,7.99553571 16.9691896,8.41941964 C16.9691896,9.12455357 16.7240455,9.64084821 16.2377763,9.96830357 L16.2377763,9.96830357 Z" id="形状"></path>
                </g>
            </g>
        </g>
    </g>
</svg>