<?xml version="1.0" encoding="UTF-8"?>
<svg width="23px" height="18px" viewBox="0 0 23 18" version="1.1" xmlns="http://www.w3.org/2000/svg" xmlns:xlink="http://www.w3.org/1999/xlink">
    <title>切片</title>
    <g id="小油灯" stroke="none" stroke-width="1" fill="none" fill-rule="evenodd">
        <g id="登录方式选择" transform="translate(-117.000000, -641.000000)" fill="#FFFFFF" fill-rule="nonzero">
            <g id="编组-2备份" transform="translate(10.000000, 572.000000)">
                <g id="编组-20" transform="translate(10.000000, 54.000000)">
                    <g id="编组-15" transform="translate(97.000000, 13.000000)">
                        <g id="-xyd/denglu/wechat_icon" transform="translate(0.000000, 2.000000)">
                            <path d="M15.5705208,5.44524237 C15.8340625,5.44524237 16.0952083,5.46370865 16.3539583,5.49140804 C15.6495833,2.34060015 12.1420833,0 8.14104168,0 C3.66562501,0 0,2.93152091 0,6.65247499 C0,8.80148756 1.21947917,10.5650167 3.25833333,11.9315209 L2.44375,14.2836625 L5.29,12.9125417 C6.30822916,13.1064375 7.12520833,13.30495 8.14104168,13.30495 C8.39739584,13.30495 8.64895835,13.2934086 8.90052083,13.2749423 C8.73642325,12.7429064 8.65172047,12.191084 8.64895832,11.6360605 C8.64895832,8.21979996 11.7036458,5.44524239 15.5705208,5.44524237 L15.5705208,5.44524237 Z M11.1933333,3.32623749 C11.8066667,3.32623749 12.2115625,3.71402924 12.2115625,4.30264171 C12.2115625,4.88894589 11.8066667,5.28135419 11.1933333,5.28135419 C10.5823958,5.28135419 9.97145833,4.88894586 9.97145833,4.30264171 C9.97145833,3.71402924 10.5823958,3.32623749 11.1933333,3.32623749 Z M5.49604166,5.28135419 C4.88510416,5.28135419 4.269375,4.88894586 4.269375,4.30264171 C4.269375,3.71402924 4.88510416,3.32623749 5.49604166,3.32623749 C6.10697917,3.32623749 6.51187501,3.71402924 6.51187501,4.30264171 C6.51187501,4.8866376 6.10697917,5.28135419 5.49604166,5.28135419 Z M23,11.5414209 C23,8.41369582 19.7440625,5.86535008 16.085625,5.86535008 C12.2115625,5.86535008 9.16166667,8.41369582 9.16166667,11.5414209 C9.16166667,14.6737625 12.2115625,17.2174917 16.085625,17.2174917 C16.8954167,17.2174917 17.7147917,17.0212875 18.5269792,16.8250833 L20.7598958,18 L20.1489583,16.0448833 C21.7829167,14.8676584 23,13.30495 23,11.5414209 L23,11.5414209 Z M13.8407292,10.5627084 C13.4358333,10.5627084 13.0261458,10.1749167 13.0261458,9.78020004 C13.0261458,9.39010001 13.4358333,8.99769171 13.8407292,8.99769171 C14.4564583,8.99769171 14.8589583,9.39010003 14.8589583,9.78020004 C14.8589583,10.1749166 14.4564583,10.5627084 13.8407292,10.5627084 Z M18.3185417,10.5627084 C17.9160417,10.5627084 17.5111458,10.1749167 17.5111458,9.78020004 C17.5111458,9.39010001 17.9160417,8.99769171 18.3185417,8.99769171 C18.9294792,8.99769171 19.3367708,9.39010003 19.3367708,9.78020004 C19.3367708,10.1749166 18.9294791,10.5627084 18.3185417,10.5627084 Z" id="形状"></path>
                        </g>
                    </g>
                </g>
            </g>
        </g>
    </g>
</svg>