<?xml version="1.0" encoding="UTF-8"?>
<svg width="24px" height="24px" viewBox="0 0 24 24" version="1.1" xmlns="http://www.w3.org/2000/svg" xmlns:xlink="http://www.w3.org/1999/xlink">
    <title> xyd/zhongxin/wddd_wddp_icon</title>
    <defs>
        <linearGradient x1="1.44777098%" y1="9.87419089%" x2="100%" y2="91.322314%" id="linearGradient-1">
            <stop stop-color="#59B3FF" offset="0%"></stop>
            <stop stop-color="#1C87F0" offset="100%"></stop>
        </linearGradient>
    </defs>
    <g id="-xyd/zhongxin/wddd_wddp_icon" stroke="none" stroke-width="1" fill="none" fill-rule="evenodd">
        <g id="编组-11">
            <rect id="矩形" stroke="#979797" fill="#D8D8D8" opacity="0" x="0.5" y="0.5" width="23" height="23"></rect>
            <path d="M22.9999228,9.74760089 C23.0026589,9.27899475 22.9326172,8.81283281 22.7922595,8.36604476 C22.7963456,8.32069199 22.7963456,8.27505977 22.7922595,8.229707 L20.8518233,3.56695511 C20.4964651,2.60311281 19.5708716,1.97437062 18.5503757,2.0036153 L5.50883938,2.0036153 C4.50490884,1.94673903 3.58476285,2.56574841 3.25251822,3.52150919 L1.23987975,8.27515292 C1.22964958,8.30507286 1.22061701,8.33539458 1.21280389,8.36604476 C0.694593194,9.97682102 1.14033971,11.7441536 2.35901503,12.9106373 L2.35901503,19.9002205 C2.34178888,20.4543019 2.54965321,20.9915005 2.93460256,21.3877522 C3.3195519,21.7840039 3.84829814,22.0050433 4.39872938,21.9999126 L19.3265502,21.9999126 C20.4480688,21.9999126 21.3572393,21.0842147 21.3572393,19.9547556 L21.3572393,13.1833128 C22.3958511,12.349843 23.000554,11.0850294 22.9999228,9.74760089 L22.9999228,9.74760089 Z M19.3265502,20.3728581 L4.39872938,20.3728581 C4.28069583,20.3753614 4.16676057,20.329243 4.08327974,20.2451711 C3.99979891,20.1610992 3.95400468,20.0463573 3.95639426,19.927488 L3.95639426,13.9104476 C4.41547587,14.0524425 4.89331848,14.1229405 5.37346012,14.1194989 C6.65638255,14.1130914 7.87136276,13.5378747 8.69476487,12.5470698 C9.50918845,13.5385504 10.7203079,14.1125103 11.9980191,14.1125103 C13.2757303,14.1125103 14.4868497,13.5385504 15.3012733,12.5470698 C16.1306276,13.5379953 17.3537842,14.1072944 18.6406286,14.1013205 C19.0202767,14.1024913 19.3988049,14.059796 19.7687892,13.9740719 L19.7687892,19.927488 C19.7687892,20.1734591 19.5707921,20.3728581 19.3265502,20.3728581 L19.3265502,20.3728581 Z M19.9673454,12.1925916 C19.5567451,12.4030119 19.1012736,12.5091049 18.6406286,12.5016239 C17.6750982,12.5015937 16.779212,11.9953812 16.276004,11.1655137 C16.2270597,11.041955 16.1567814,10.9280981 16.0684225,10.8292139 C15.8679726,10.6221084 15.592965,10.5053073 15.3057859,10.5053073 C15.0186068,10.5053073 14.7435992,10.6221084 14.5431493,10.8292139 C14.457855,10.9270334 14.387858,11.0373698 14.3355678,11.1564245 C13.8500368,11.9929573 12.9601638,12.5071663 11.9980191,12.5071663 C11.0358743,12.5071663 10.1460014,11.9929573 9.66047034,11.1564245 C9.61430247,11.0465211 9.55024559,10.9451476 9.47093936,10.8564814 C9.04564526,10.4337277 8.36193507,10.4337277 7.93664096,10.8564814 C7.84321231,10.9600732 7.76975771,11.080282 7.72003413,11.2109596 C7.21261729,12.0306996 6.32359549,12.5315278 5.36443484,12.5379807 C4.91090341,12.5530002 4.46089716,12.4529854 4.05576857,12.2471267 C3.13469529,11.7712465 2.56367703,10.8081073 2.58464715,9.76577925 C2.58311441,9.45614244 2.63503021,9.14859317 2.73807699,8.85686075 C2.73495848,8.83272466 2.73495848,8.80828336 2.73807699,8.78414727 L4.72363962,4.08503866 C4.72363962,3.96687926 4.88609473,3.60331185 5.4998141,3.60331185 L18.559401,3.60331185 C18.9209339,3.57529287 19.2594595,3.78424533 19.3987525,4.1213954 L21.2038094,8.74779053 L21.2038094,8.83868239 C21.3029133,9.13143624 21.3547155,9.43831217 21.3573466,9.74760089 C21.3660899,10.7626375 20.8269057,11.7024482 19.9492949,12.2016808 L19.9673454,12.1925916 Z" id="形状" fill="url(#linearGradient-1)" fill-rule="nonzero"></path>
        </g>
    </g>
</svg>