<?xml version="1.0" encoding="UTF-8"?>
<svg width="30px" height="30px" viewBox="0 0 30 30" version="1.1" xmlns="http://www.w3.org/2000/svg" xmlns:xlink="http://www.w3.org/1999/xlink">
    <title>切片</title>
    <defs>
        <linearGradient x1="50%" y1="0%" x2="50%" y2="100%" id="linearGradient-1">
            <stop stop-color="#59B3FF" offset="0%"></stop>
            <stop stop-color="#1C87F0" offset="100%"></stop>
        </linearGradient>
    </defs>
    <g id="小油灯" stroke="none" stroke-width="1" fill="none" fill-rule="evenodd">
        <g id="111" transform="translate(-100.000000, -380.000000)">
            <g id="编组-20" transform="translate(97.000000, 380.000000)">
                <g id="-xyd/zhongxin/wddd_ziti_icon" transform="translate(3.000000, 0.000000)">
                    <g id="编组-12" fill="#D8D8D8" opacity="0">
                        <rect id="矩形备份-9" x="0" y="0" width="30" height="30"></rect>
                    </g>
                    <g id="编组-10">
                        <rect id="矩形" fill="#D8D8D8" opacity="0" x="0" y="0" width="30" height="30"></rect>
                        <path d="M3.00148967,14.5845924 C3.00670351,14.426413 3.0543729,14.2712181 3.14300817,14.138407 L7.9151609,6.96511845 C8.07232092,6.73157993 8.33822673,6.58981533 8.62051889,6.58981533 L14.0707831,6.58981533 C14.538539,6.58981533 14.9176596,6.97034135 14.9176596,7.43891065 L14.9176596,21.2691662 C14.9176596,21.7369894 14.5377941,22.1175154 14.0692934,22.1175154 L13.3345746,22.1175154 C13.3345746,24.2617524 11.5993445,26 9.45882979,26 C7.31831505,26 5.58308501,24.2617524 5.58308501,22.1175154 L3.84762132,22.1175154 C3.37983305,22.116694 3.00081996,21.7370218 3,21.2684201 L3,14.6092147 L3.00148967,14.5845924 Z M12.0415424,14.3532923 L12.0415424,9.17664615 L8.77246507,9.17664615 L5.32686205,14.3532923 L12.0407975,14.3532923 L12.0415424,14.3532923 Z M9.45771254,24.0567058 C10.5271514,24.0558843 11.3941287,23.1880669 11.3957711,22.1167693 C11.3945398,21.0450591 10.5275623,20.1765739 9.45771254,20.1753404 C8.38873488,20.1773945 7.52278307,21.0451858 7.52114361,22.1160231 C7.52237409,23.1870304 8.38856504,24.0550614 9.45771254,24.0567058 L9.45771254,24.0567058 Z M25.8752999,4.00074613 C26.4964916,4.00074613 27.0000007,4.50512964 27.0000007,5.1274016 L27.0000007,20.9886215 C27.0001971,21.2875584 26.8817896,21.5743193 26.6708461,21.7857696 C26.4599025,21.9972199 26.1737178,22.1160232 25.8752999,22.1160231 L25.1268617,22.1160231 C25.1268617,23.1455545 24.7185409,24.1329081 23.9917462,24.8608268 C23.2649515,25.5887454 22.2792335,25.9973886 21.2514893,25.9973886 C20.2237451,25.9973886 19.2380271,25.5887454 18.5112324,24.8608268 C17.7844377,24.1329081 17.3761169,23.1455545 17.3761169,22.1160231 L17.3346466,22.1160231 C16.7134921,22.1160231 16.2099469,21.6116023 16.2099469,20.9893677 L16.2099469,5.12665547 C16.2099469,4.50512964 16.71271,4 17.3346466,4 L25.8752999,4.00074613 Z M23.1873134,22.1167693 C23.186084,21.0456406 22.3200124,20.1773956 21.2507445,20.1753404 C20.1810639,20.176572 19.3139927,21.0444837 19.311941,22.1160231 C19.3131731,23.1876122 20.1802704,24.0558835 21.2499996,24.0567058 C22.3196016,24.0550624 23.1856728,23.1874852 23.1873134,22.1167693 Z" id="形状" fill="url(#linearGradient-1)" fill-rule="nonzero"></path>
                    </g>
                </g>
            </g>
        </g>
    </g>
</svg>