<?xml version="1.0" encoding="UTF-8"?>
<svg width="30px" height="30px" viewBox="0 0 30 30" version="1.1" xmlns="http://www.w3.org/2000/svg" xmlns:xlink="http://www.w3.org/1999/xlink">
    <title>切片</title>
    <defs>
        <linearGradient x1="50%" y1="0%" x2="50%" y2="100%" id="linearGradient-1">
            <stop stop-color="#59B3FF" offset="0%"></stop>
            <stop stop-color="#1C87F0" offset="100%"></stop>
        </linearGradient>
    </defs>
    <g id="小油灯" stroke="none" stroke-width="1" fill="none" fill-rule="evenodd">
        <g id="111" transform="translate(-167.000000, -380.000000)">
            <g id="编组-19" transform="translate(164.000000, 380.000000)">
                <g id="编组-8" transform="translate(3.000000, 0.000000)">
                    <rect id="矩形" stroke="#979797" fill="#D8D8D8" opacity="0" x="0.5" y="0.5" width="29" height="29"></rect>
                    <path d="M22.4608171,7.24346952 C23.3527712,7.24346952 24.0825519,6.51368889 24.0825519,5.62173476 C24.0825519,4.72978063 23.3527712,4 22.4608171,4 L7.86520429,4 C6.97325016,4 6.24346952,4.72978063 6.24346952,5.62173476 C6.24346952,6.51368889 6.97325016,7.24346952 7.86520429,7.24346952 L22.4608171,7.24346952 L22.4608171,7.24346952 Z M8.67607165,8.0543369 C7.78411752,8.0543369 7.0543369,8.78411754 7.0543369,9.67607165 L7.0543369,14.5412759 C7.0543369,15.4332301 7.78411754,16.1630107 8.67607165,16.1630107 L21.6499497,16.1630107 C22.5419038,16.1630107 23.2716845,15.4332301 23.2716845,14.5412759 L23.2716845,9.67607165 C23.2716845,8.78411752 22.5419038,8.0543369 21.6499497,8.0543369 L8.67607165,8.0543369 Z M3,25.8934192 L5.75694909,25.8934192 L5.75694909,19.3253935 L3,19.3253935 L3,25.8934192 Z M25.9475468,18.3523526 L23.109511,20.4606078 L22.0553834,21.5147354 C21.8932099,22.4066895 20.7579956,22.568863 19.9471282,22.568863 L13.5412759,22.568863 C12.6493218,22.6499497 12.4871483,21.6769089 12.4871483,21.5147354 C12.4871483,21.3525619 13.3791025,21.5147354 13.5412759,21.5147354 L19.8660415,21.5147354 C20.5958221,21.5958221 21.4877762,18.838873 20.1093017,18.838873 L15.8927913,18.838873 C15.4062709,18.838873 13.7034494,17.7036587 11.2708473,17.7036587 C9.73019924,17.7036587 7.70303079,19.16322 6.81107669,19.5686537 C6.64890321,19.5686537 6.64890321,19.7308272 6.64890321,19.9740874 L6.64890321,25.4879856 C6.72998996,25.7312458 6.89216343,25.8934192 7.0543369,25.8934192 C9.24367883,25.8934192 15.8927913,25.8934192 16.9469189,25.7312458 C21.0012558,25.5690723 27.0827612,20.5416945 27.0827612,20.3795211 C27.8125418,19.0821333 26.4340673,18.1090924 25.9475468,18.3523526 L25.9475468,18.3523526 Z" id="形状" fill="url(#linearGradient-1)" fill-rule="nonzero"></path>
                </g>
            </g>
        </g>
    </g>
</svg>