<?xml version="1.0" encoding="UTF-8"?>
<svg width="30px" height="30px" viewBox="0 0 30 30" version="1.1" xmlns="http://www.w3.org/2000/svg" xmlns:xlink="http://www.w3.org/1999/xlink">
    <title>切片</title>
    <defs>
        <linearGradient x1="50%" y1="0%" x2="50%" y2="100%" id="linearGradient-1">
            <stop stop-color="#59B3FF" offset="0%"></stop>
            <stop stop-color="#1C87F0" offset="100%"></stop>
        </linearGradient>
    </defs>
    <g id="小油灯" stroke="none" stroke-width="1" fill="none" fill-rule="evenodd">
        <g id="111" transform="translate(-233.000000, -380.000000)">
            <g id="编组-15" transform="translate(230.000000, 380.000000)">
                <g id="-xyd/zhongxin/wddd_fuwu_icon" transform="translate(3.000000, 0.000000)">
                    <g id="编组-13" fill="#D8D8D8" opacity="0">
                        <rect id="矩形备份-10" x="0" y="0" width="30" height="30"></rect>
                    </g>
                    <g id="编组-2" transform="translate(3.000000, 4.000000)" fill-rule="nonzero">
                        <path d="M16.0325909,18.7484368 L13.0812727,21.755143 C12.9284469,21.9117331 12.7190961,22 12.5005227,22 C12.2819494,22 12.0725985,21.9117331 11.9197727,21.755143 L8.96740909,18.7484368 L1.64240908,18.7484368 C0.736000001,18.7484368 0,17.9993794 0,17.0743196 L0,1.67411724 C0,0.749057464 0.736000001,0 1.64240908,0 L22.3586364,0 C23.264,0 24,0.749057464 24,1.67411724 L24,17.0743196 C24,17.9993794 23.264,18.7484368 22.3575909,18.7484368 L16.0325909,18.7484368 Z" id="路径" fill="url(#linearGradient-1)"></path>
                        <g id="编组" transform="translate(3.000000, 8.000000)" fill="#FFFFFF">
                            <path d="M2.60669549,2.6459249 C2.89258507,2.35452736 3.05118046,1.96121532 3.0475607,1.55259181 C3.05090157,1.14414899 2.89218267,0.751106451 2.60632317,0.459936031 C2.32046366,0.168765612 1.93088177,0.00332061976 1.52328797,-3.55271368e-14 C0.67492445,0.00748986379 -0.00689789242,0.702456274 6.07072632e-05,1.55259181 C-0.00355980912,1.96103533 0.154892396,2.35418962 0.440556346,2.64555703 C0.726220296,2.93692444 1.11569342,3.10263516 1.52328797,3.10623128 C1.93106447,3.10291155 2.32080591,2.93732245 2.60669549,2.6459249 Z" id="路径"></path>
                            <path d="M9.00560615,3.10623128 C9.41338264,3.10291155 9.80312409,2.93732246 10.0890137,2.64592491 C10.3749033,2.35452736 10.5334987,1.96121532 10.5298789,1.55259181 C10.5332198,1.14414899 10.3745009,0.751106444 10.0886414,0.459936024 C9.80278184,0.168765604 9.41319994,0.00332061409 9.00560615,-3.55271368e-14 C8.59801235,0.00332061976 8.20843046,0.168765612 7.92257096,0.459936031 C7.63671145,0.751106451 7.47799255,1.14414899 7.48133342,1.55259181 C7.47771366,1.96121532 7.63630906,2.35452736 7.92219863,2.6459249 C8.20808821,2.93732245 8.59782965,3.10291155 9.00560615,3.10623128 Z" id="路径"></path>
                            <path d="M17.570656,2.64555703 C17.8563199,2.35418962 18.0147721,1.96103533 18.0111516,1.55259181 C18.0181102,0.702456274 17.3362879,0.00748986379 16.4879243,-3.55271368e-14 C16.0803305,0.00332061976 15.6907487,0.168765612 15.4048891,0.459936031 C15.1190296,0.751106451 14.9603107,1.14414899 14.9636516,1.55259181 C14.9600319,1.96121532 15.1186272,2.35452736 15.4045168,2.6459249 C15.6904064,2.93732245 16.0801478,3.10291155 16.4879243,3.10623128 C16.8955189,3.10263516 17.284992,2.93692444 17.570656,2.64555703 Z" id="路径"></path>
                        </g>
                    </g>
                </g>
            </g>
        </g>
    </g>
</svg>