<?xml version="1.0" encoding="UTF-8"?>
<svg width="30px" height="30px" viewBox="0 0 30 30" version="1.1" xmlns="http://www.w3.org/2000/svg" xmlns:xlink="http://www.w3.org/1999/xlink">
    <title>切片</title>
    <defs>
        <linearGradient x1="50%" y1="0%" x2="50%" y2="100%" id="linearGradient-1">
            <stop stop-color="#59B3FF" offset="0%"></stop>
            <stop stop-color="#1C87F0" offset="100%"></stop>
        </linearGradient>
    </defs>
    <g id="小油灯" stroke="none" stroke-width="1" fill="none" fill-rule="evenodd">
        <g id="111" transform="translate(-33.000000, -380.000000)" fill="url(#linearGradient-1)" fill-rule="nonzero">
            <g id="编组-18" transform="translate(30.000000, 380.000000)">
                <g id="-xyd/zhongxin/wddd_kuaidi_icon" transform="translate(3.000000, 0.000000)">
                    <path d="M22.6666667,4 C24.9872807,4 26.8970683,5.78777206 26.9959764,8.00941863 L27,8.19047619 L27,11.5079365 L17.6111111,11.5079365 C16.6785024,11.5079365 15.8780508,12.2108381 15.8102093,13.1276662 L15.8055556,13.2539683 L15.8055556,16.7460317 C15.8055556,17.6478951 16.5324197,18.4219582 17.4805033,18.4875632 L17.6111111,18.4920635 L27,18.4920635 L27,21.8095238 C27,24.0536341 25.1512812,25.9004617 22.8538966,25.996109 L22.6666667,26 L7.33333333,26 C5.0127193,26 3.10293167,24.2122279 3.00402361,21.9905814 L3,21.8095238 L3,8.19047619 C3,5.94636591 4.84871884,4.09953832 7.14610336,4.00389096 L7.33333333,4 L22.6666667,4 Z M24.8333333,13.3076923 C25.5513035,13.3076923 26.1333333,13.8759463 26.1333333,14.5769231 C26.1333333,15.2778999 25.5513035,15.8461538 24.8333333,15.8461538 C24.1153632,15.8461538 23.5333333,15.2778999 23.5333333,14.5769231 C23.5333333,13.8759463 24.1153632,13.3076923 24.8333333,13.3076923 Z" id="形状"></path>
                </g>
            </g>
        </g>
    </g>
</svg>