<?xml version="1.0" encoding="UTF-8"?>
<svg width="30px" height="30px" viewBox="0 0 30 30" version="1.1" xmlns="http://www.w3.org/2000/svg" xmlns:xlink="http://www.w3.org/1999/xlink">
    <title>切片</title>
    <defs>
        <linearGradient x1="50%" y1="0%" x2="50%" y2="100%" id="linearGradient-1">
            <stop stop-color="#59B3FF" offset="0%"></stop>
            <stop stop-color="#1C87F0" offset="100%"></stop>
        </linearGradient>
    </defs>
    <g id="小油灯" stroke="none" stroke-width="1" fill="none" fill-rule="evenodd">
        <g id="111" transform="translate(-306.000000, -380.000000)">
            <g id="编组-17" transform="translate(297.000000, 380.000000)">
                <g id="编组-14" transform="translate(9.000000, 0.000000)">
                    <rect id="矩形备份-11" fill="#D8D8D8" opacity="0" x="0" y="0" width="30" height="30"></rect>
                    <path d="M11.9237058,18.0740101 L14.0955761,15.6319415 C14.4201341,15.254096 14.4154925,14.6534915 14.0851439,14.2820449 C13.7547954,13.9105983 13.2206437,13.9053793 12.8846043,14.2703149 L9.25083217,18.3561577 C9.00460993,18.6330405 8.93200661,19.049991 9.06718125,19.4108386 C9.2023559,19.7716862 9.5183908,20.0045744 9.86659511,19.9999318 L20.1435842,19.9999318 C20.6165696,19.9999318 21,19.5687996 21,19.036971 C21,18.5051424 20.6165696,18.0740101 20.1435842,18.0740101 L11.9237058,18.0740101 Z M3,8 L3,4 C3,2.8954305 3.78350169,2 4.74999997,2 L25.25,2 C26.2164983,2 27,2.8954305 27,4 L27,8 L3,8 Z M27,24.1111111 C27,25.1543156 26.2164983,26 25.25,26 L4.74999997,26 C3.78350169,26 3,25.1543156 3,24.1111111 L3,9 L27,9 L27,24.1111111 Z" id="形状" fill="url(#linearGradient-1)" fill-rule="nonzero"></path>
                </g>
            </g>
        </g>
    </g>
</svg>