<?xml version="1.0" encoding="UTF-8"?>
<svg width="40px" height="40px" viewBox="0 0 40 40" version="1.1" xmlns="http://www.w3.org/2000/svg" xmlns:xlink="http://www.w3.org/1999/xlink">
    <title> xyd/shjf/ranqi_icon</title>
    <g id="-xyd/shjf/ranqi_icon" stroke="none" stroke-width="1" fill="none" fill-rule="evenodd">
        <g id="编组-18">
            <rect id="矩形" x="0" y="0" width="40" height="40"></rect>
            <g id="-xyd/shjf/ranqi_icon" transform="translate(8.000000, 5.000000)" fill="#F5493B" fill-rule="nonzero">
                <path d="M14.7332998,29.9994973 C14.7332998,29.9994973 23.6030455,29.2646918 25,19.9976406 C25,13.7548302 19.8635998,10.2204765 19.8635998,10.2204765 C19.8635998,10.2204765 18.8082586,12.1091088 17.6309127,12.6678039 C17.6431132,12.7528227 20.8152369,4.22057705 10.2679257,0 C10.2557252,0.157892091 10.7437442,2.24085314 10.713243,3.10925964 C10.6827419,3.97766614 9.95071332,7.91282286 6.0282604,10.8884815 C2.10580749,13.8641401 0.0622278212,16.0017561 0.00122544311,19.9976406 C-0.059776935,23.993525 2.14240892,28.3051937 9.82260832,29.9994973 C9.81650808,30.0480795 6.69928656,26.5683807 6.69928656,22.6635878 C6.69318632,18.758795 10.4509328,16.1778665 12.2810042,15.1090585 C12.2383025,15.096913 12.0796963,15.7892091 12.0552954,16.888381 C12.0308944,17.9875528 12.7263215,19.9490584 14.0622736,21.108958 C15.3982257,22.2749304 16.5389702,24.1574899 16.5206694,25.329535 C16.5023687,26.507653 15.5812328,28.8760343 14.7332998,29.9994973 Z" id="路径"></path>
            </g>
        </g>
    </g>
</svg>