<?xml version="1.0" encoding="UTF-8"?>
<svg width="40px" height="40px" viewBox="0 0 40 40" version="1.1" xmlns="http://www.w3.org/2000/svg" xmlns:xlink="http://www.w3.org/1999/xlink">
    <title> xyd/shjf/shuifei_icon</title>
    <g id="-xyd/shjf/shuifei_icon" stroke="none" stroke-width="1" fill="none" fill-rule="evenodd">
        <g id="编组-6">
            <rect id="矩形" x="0" y="0" width="40" height="40"></rect>
            <g id="-xyd/shjf/shuifei_icon" transform="translate(9.000000, 5.000000)" fill="#3E81FD" fill-rule="nonzero">
                <path d="M11.1193461,0 C11.1193461,0 0.191851629,10.1419558 0.00344655298,18.5646688 C-0.184958523,26.9873817 7.39834579,30 11.1193461,30 C15.7038696,30 22.0468405,26.5457413 21.9997392,18.0757098 C21.9683384,9.60567823 11.1193461,0 11.1193461,0 Z M13.2546036,26.4195584 C12.7364896,26.6403785 12.1241731,26.2302839 11.8886668,25.5205047 C11.6531604,24.8107256 11.8886668,24.0536278 12.4224812,23.8485804 L12.4381816,23.8485804 C15.0915531,22.7444795 16.8343,19.9369085 17.3053127,16.5772871 C17.352414,16.1514196 17.5722199,15.7886435 17.9176292,15.6466877 C18.4357432,15.4258675 19.0480597,15.8359621 19.283566,16.5457413 C19.3777686,16.829653 19.393469,17.1135647 19.3463677,17.3817035 C18.7497516,21.5615142 16.5673928,25.0630915 13.2546036,26.4195584 L13.2546036,26.4195584 Z" id="形状"></path>
            </g>
        </g>
    </g>
</svg>