<?xml version="1.0" encoding="UTF-8"?>
<svg width="24px" height="22px" viewBox="0 0 24 22" version="1.1" xmlns="http://www.w3.org/2000/svg" xmlns:xlink="http://www.w3.org/1999/xlink">
    <title>编组 25</title>
    <g id="小油灯" stroke="none" stroke-width="1" fill="none" fill-rule="evenodd">
        <g id="个人中心_已实名认证备份-8" transform="translate(-173.000000, -462.000000)">
            <g id="编组-25" transform="translate(174.000000, 462.000000)">
                <rect id="矩形" stroke="#979797" stroke-width="0.666666667" fill="#D8D8D8" opacity="0" x="0.333333333" y="0.333333333" width="21.3333333" height="21.3333333"></rect>
                <path d="M19.6878,11.3084925 C19.6922,11.3586736 19.7032,11.4044912 19.7032,11.4546723 L19.7032,19.1825696 C19.7032,20.1861926 18.8826,21 17.8706,21 L4.1206,21 C3.1086,21 2.288,20.1861926 2.288,19.1825696 L2.288,11.4546723 C2.288,11.4044912 2.299,11.3564918 2.3034,11.3063107 C0.9746,10.9157704 0,9.71142277 0,8.26926012 C0,6.51291983 1.4366,5.08821149 3.2076,5.08821149 L4.0568,5.08821149 C3.575,4.27222234 3.5244,3.23369069 4.0326,2.35661144 C4.785,1.05626508 6.457,0.613361879 7.766,1.36826094 L11.0044,3.23369069 L14.2472,1.36826094 C15.5584,0.613361879 17.2304,1.05626508 17.985,2.35661144 C18.4932,3.23587248 18.4404,4.27222234 17.9542,5.08821149 L18.7924,5.08821149 C20.5634,5.08821149 22,6.51291983 22,8.26926012 C22,9.71578635 21.021,10.9223158 19.6878,11.3084925 L19.6878,11.3084925 Z M11.9174,19.1825696 L17.875,19.1825696 L17.875,11.4546723 L11.9174,11.4546723 L11.9174,19.1825696 Z M4.125,19.1825696 L10.0826,19.1825696 L10.0826,11.4546723 L4.125,11.4546723 L4.125,19.1825696 Z M1.8326,8.2736237 C1.8326,9.02634097 2.4486,9.63724194 3.2076,9.63724194 L10.0804,9.63724194 L10.0804,6.91000546 L3.2076,6.91000546 C2.4486,6.91000546 1.8326,7.52090643 1.8326,8.2736237 Z M6.853,2.93696736 C6.4174,2.6860616 5.8586,2.83442327 5.6056,3.26859931 C5.3526,3.70277536 5.5022,4.25694981 5.94,4.50785557 L6.9454,5.0860297 L10.5974,5.0860297 L6.853,2.93696736 L6.853,2.93696736 Z M16.0732,4.51003736 C16.511,4.2591316 16.6606,3.70495715 16.4076,3.2707811 C16.1546,2.83660506 15.5958,2.68824339 15.158,2.93914915 L11.407,5.08821149 L15.0634,5.08821149 L16.0732,4.51003736 L16.0732,4.51003736 Z M18.7924,6.91000546 L11.9174,6.91000546 L11.9174,9.63724194 L18.7924,9.63724194 C19.5514,9.63724194 20.1674,9.02634097 20.1674,8.2736237 C20.1674,7.52090643 19.5514,6.91000546 18.7924,6.91000546 L18.7924,6.91000546 Z" id="形状" stroke="#FFFFFF" stroke-width="0.5" fill="#FFB734" fill-rule="nonzero"></path>
            </g>
        </g>
    </g>
</svg>