<?xml version="1.0" encoding="UTF-8"?>
<svg width="10px" height="10px" viewBox="0 0 10 10" version="1.1" xmlns="http://www.w3.org/2000/svg" xmlns:xlink="http://www.w3.org/1999/xlink">
    <title> xyd/phb/gouwuche_icon</title>
    <g id="-xyd/phb/gouwuche_icon" stroke="none" stroke-width="1" fill="none" fill-rule="evenodd">
        <path d="M2.90706826,8.80839791 C3.22195009,8.80839791 3.47721224,9.07514712 3.47721224,9.40419895 C3.47721224,9.61705816 3.36854342,9.81374819 3.19214025,9.92017779 C3.01573709,10.0266074 2.79839942,10.0266074 2.62199626,9.92017779 C2.44559309,9.81374819 2.33692427,9.61705816 2.33692427,9.40419895 C2.33692427,9.07514712 2.59218643,8.80839791 2.90706826,8.80839791 Z M7.24016256,8.79445617 C7.55504439,8.79445617 7.81030655,9.06120538 7.81030655,9.3902572 C7.81030655,9.71930903 7.55504439,9.98605824 7.24016256,9.98605824 C6.92528073,9.98605824 6.67001858,9.71930903 6.67001858,9.3902572 C6.67001858,9.06120538 6.92528073,8.79445617 7.24016256,8.79445617 Z M0.534455476,0.024716818 C0.641767622,0.0651383842 0.726049655,0.150964889 0.768370744,0.258768547 L0.791948089,0.343375947 L1.07519562,1.99237448 L9.08446434,1.96657629 C9.65355712,1.96473303 10.0754258,2.49774921 9.98866544,3.06699237 L9.96442457,3.18117628 L8.74591284,7.64718169 C8.67165525,7.91950781 8.45208243,8.11697864 8.19010462,8.15816457 L8.09007621,8.16612439 L1.88291861,8.1861466 C1.58338073,8.18708687 1.32236789,7.98517918 1.23104584,7.69509182 L1.20706993,7.59528742 L0.262512382,1.994996 L0.264678929,1.994996 L0.00628967369,0.490777124 C-0.0189071325,0.344117128 0.0326828844,0.194550448 0.141626264,0.098417407 C0.250569643,0.00228436616 0.400315293,-0.0258101398 0.534455476,0.024716818 Z M6.92418877,5.57248332 L3.16123845,5.58457808 C2.94263988,5.58793057 2.76730899,5.77444556 2.76799412,6.00290475 C2.76868328,6.23136394 2.94513267,6.4167235 3.16374708,6.41863995 L6.9266974,6.40654519 C7.07037406,6.40780471 7.20360872,6.32826151 7.27553676,6.19828258 C7.3474648,6.06830365 7.34698252,5.90795417 7.27427402,5.7784503 C7.20156552,5.64894643 7.06785501,5.57028002 6.92418877,5.57248332 Z" id="形状结合" fill="#D20012" fill-rule="nonzero"></path>
    </g>
</svg>