<?xml version="1.0" encoding="UTF-8"?>
<svg width="24px" height="24px" viewBox="0 0 24 24" version="1.1" xmlns="http://www.w3.org/2000/svg" xmlns:xlink="http://www.w3.org/1999/xlink">
    <title>切片</title>
    <defs>
        <linearGradient x1="50%" y1="0%" x2="50%" y2="100%" id="linearGradient-1">
            <stop stop-color="#59B3FF" offset="0%"></stop>
            <stop stop-color="#1C87F0" offset="100%"></stop>
        </linearGradient>
    </defs>
    <g id="小油灯" stroke="none" stroke-width="1" fill="none" fill-rule="evenodd">
        <g id="111" transform="translate(-20.000000, -573.000000)">
            <g id="编组-23" transform="translate(20.000000, 573.000000)">
                <rect id="矩形" stroke="#979797" fill="#D8D8D8" opacity="0" x="0.5" y="0.5" width="23" height="23"></rect>
                <path d="M8.98238032,2.00448803 L4.328125,2.00448803 C3.04288788,2.00448803 2.00099734,3.04637857 2.00099734,4.33161569 L2.00099734,8.98587101 C2.00099734,10.2704455 3.04355053,11.3129987 4.328125,11.3129987 L8.98238032,11.3129987 C10.2676174,11.3129987 11.309508,10.2711081 11.309508,8.98587101 L11.309508,4.33161569 C11.309508,3.04637857 10.2676174,2.00448803 8.98238032,2.00448803 L8.98238032,2.00448803 Z M4.328125,3.99916888 L8.98238032,3.99916888 C9.16598562,3.99916888 9.31482713,4.14801039 9.31482713,4.33161569 L9.31482713,8.98587101 C9.31482713,9.16947631 9.16598562,9.31831782 8.98238032,9.31831782 L4.328125,9.31831782 C4.1445197,9.31831782 3.99567819,9.16947631 3.99567819,8.98587101 L3.99567819,4.33161569 C3.99567819,4.14801039 4.1445197,3.99916888 4.328125,3.99916888 Z M8.98238032,12.6401263 L4.328125,12.6401263 C3.04288788,12.6401263 2.00099734,13.6820169 2.00099734,14.967254 L2.00099734,19.6215093 C2.00099734,20.9060838 3.04355053,21.948637 4.328125,21.948637 L8.98238032,21.948637 C10.2676174,21.948637 11.309508,20.9067464 11.309508,19.6215093 L11.309508,14.967254 C11.309508,13.6820169 10.2676174,12.6401263 8.98238032,12.6401263 Z M4.328125,14.6348072 L8.98238032,14.6348072 C9.16598562,14.6348072 9.31482713,14.7836487 9.31482713,14.967254 L9.31482713,19.6215093 C9.31482713,19.8051146 9.16598562,19.9539561 8.98238032,19.9539561 L4.328125,19.9539561 C4.1445197,19.9539561 3.99567819,19.8051146 3.99567819,19.6215093 L3.99567819,14.967254 C3.99567819,14.7836487 4.1445197,14.6348072 4.328125,14.6348072 Z M19.5634973,2.00448803 L14.909242,2.00448803 C13.6240049,2.00448803 12.5821144,3.04637857 12.5821144,4.33161569 L12.5821144,8.98587101 C12.5821144,10.2704455 13.6233378,11.3129987 14.909242,11.3129987 L19.5634973,11.3129987 C20.18069,11.3129987 20.772604,11.0678199 21.2090251,10.6313988 C21.6454462,10.1949777 21.890625,9.60306364 21.890625,8.98587101 L21.890625,4.33161569 C21.890625,3.71442306 21.6454462,3.12250904 21.2090251,2.68608794 C20.772604,2.24966685 20.18069,2.00448803 19.5634973,2.00448803 L19.5634973,2.00448803 Z M14.909242,3.99916888 L19.5634973,3.99916888 C19.7471026,3.99916888 19.8959441,4.14801039 19.8959441,4.33161569 L19.8959441,8.98587101 C19.8959441,9.16947631 19.7471026,9.31831782 19.5634973,9.31831782 L14.909242,9.31831782 C14.7256367,9.31831782 14.5767952,9.16947631 14.5767952,8.98587101 L14.5767952,4.33161569 C14.5767952,4.14801039 14.7256367,3.99916888 14.909242,3.99916888 Z M20.2736037,13.1028923 C20.7724303,13.1030042 21.1944603,13.4716415 21.2616356,13.9659242 L21.2709441,14.1002327 L21.2709441,20.4872008 C21.2707834,21.0115148 20.8646772,21.4461789 20.3415824,21.4819161 C19.8184877,21.5176533 19.3570392,21.1422596 19.2855718,20.6228391 L19.2762633,20.4872008 L19.2762633,14.1002327 C19.2762633,13.5494168 19.7227878,13.1028923 20.2736037,13.1028923 L20.2736037,13.1028923 Z M14.2922207,13.1028923 C14.7910473,13.1030042 15.2130774,13.4716415 15.2802527,13.9659242 L15.2895612,14.1002327 L15.2895612,20.4872008 C15.2894005,21.0115148 14.8832942,21.4461789 14.3601995,21.4819161 C13.8371047,21.5176533 13.3756562,21.1422596 13.3041888,20.6228391 L13.2948803,20.4872008 L13.2948803,14.1002327 C13.2948803,13.5494168 13.7414048,13.1028923 14.2922207,13.1028923 Z" id="形状" stroke="#FFFFFF" stroke-width="0.4" fill="url(#linearGradient-1)" fill-rule="nonzero"></path>
            </g>
        </g>
    </g>
</svg>