<?xml version="1.0" encoding="UTF-8"?>
<svg width="24px" height="24px" viewBox="0 0 24 24" version="1.1" xmlns="http://www.w3.org/2000/svg" xmlns:xlink="http://www.w3.org/1999/xlink">
    <title>切片</title>
    <defs>
        <linearGradient x1="50%" y1="0%" x2="50%" y2="100%" id="linearGradient-1">
            <stop stop-color="#FFC75E" offset="0%"></stop>
            <stop stop-color="#FFB633" offset="100%"></stop>
        </linearGradient>
    </defs>
    <g id="小油灯" stroke="none" stroke-width="1" fill="none" fill-rule="evenodd">
        <g id="111" transform="translate(-236.000000, -497.000000)">
            <g id="编组-23" transform="translate(236.000000, 497.000000)">
                <rect id="矩形" stroke="#979797" fill="#D8D8D8" opacity="0" x="0.5" y="0.5" width="23" height="23"></rect>
                <path d="M18.222907,9.17445279 L5.53114551,9.17445279 C5.32085294,9.17533084 5.1189187,9.09188463 4.97021808,8.94265119 C4.82151747,8.79341776 4.73836919,8.59075995 4.73924411,8.37971386 C4.73836919,8.16866776 4.82151747,7.96600996 4.97021808,7.81677652 C5.1189187,7.66754309 5.32085294,7.58409687 5.53114551,7.58497493 L18.222907,7.58497493 C18.4331995,7.58409687 18.6351338,7.66754309 18.7838344,7.81677652 C18.932535,7.96600996 19.0156833,8.16866776 19.0148084,8.37971386 C19.0156537,8.59075092 18.9324959,8.79339143 18.7838017,8.9426184 C18.6351076,9.09184536 18.4331905,9.17530113 18.222907,9.17445279 L18.222907,9.17445279 Z M20.5764802,14.7813893 C20.3661876,14.7805112 20.1642534,14.8639575 20.0155528,15.0131909 C19.8668522,15.1624243 19.7837039,15.3650821 19.7845858,15.5761282 L19.7845858,19.9469884 C19.7845858,20.1898569 19.5865846,20.3884571 19.3446933,20.3884571 L4.43135932,20.3884571 C4.1886893,20.38779 3.99213161,20.190528 3.99146684,19.9469884 L3.99146684,15.6644441 C3.99234871,15.453398 3.90920043,15.2507402 3.76049981,15.1015067 C3.6117992,14.9522733 3.40986496,14.8688271 3.19957238,14.8697121 C2.98927981,14.8688271 2.78734557,14.9522733 2.63864496,15.1015067 C2.48994434,15.2507402 2.40679606,15.453398 2.40767098,15.6644441 L2.40767098,19.9469884 C2.40767098,21.0727943 3.309463,22 4.43135932,22 L19.3666934,22 C20.4884797,22 21.3902648,21.0729047 21.3902648,19.9469884 L21.3902648,15.5761282 C21.3682647,15.1346595 21.0163727,14.7813893 20.5764802,14.7813893 Z M19.9825869,12.2207895 C19.6305849,12.4195001 19.1686923,12.5298949 18.6627994,12.5298949 C17.695014,12.5298949 16.815119,12.0442683 16.3092262,11.2053784 C16.2652259,11.1170626 16.2212257,10.9845889 16.089225,10.8743045 C15.9572242,10.7197518 15.7153329,10.5432306 15.3193306,10.5432306 C15.0113289,10.5432306 14.7254373,10.6757043 14.5494363,10.8743045 C14.4394357,10.9846993 14.3734353,11.117173 14.3514352,11.2053784 C13.8455423,12.0441579 12.9657574,12.5298949 12.019862,12.5298949 C11.0520766,12.5298949 10.1941818,12.0221893 9.66628879,11.1832995 C9.62228855,11.1170626 9.5782883,10.9845889 9.46828768,10.8741941 C9.09439557,10.4327254 8.25850087,10.4548044 7.92860901,10.8300362 C7.81860839,10.9625099 7.75260802,11.0949837 7.70860777,11.1832995 C7.20271492,12.022079 6.32281997,12.5078159 5.35503452,12.5078159 C4.84914167,12.5078159 4.40924919,12.4195001 4.05724721,12.2207895 C3.1501628,11.7315275 2.58407634,10.7818708 2.58345892,9.74838824 C2.58345892,9.43928288 2.62745916,9.13028791 2.73745978,8.82118255 C2.73745978,8.79910359 2.75945991,8.77702464 2.75945991,8.75494569 L4.71714093,4.05301157 C4.76114118,3.9426168 4.8711418,3.56738497 5.48703526,3.56738497 L18.5307987,3.56738497 C18.7728001,3.58946392 19.2126925,3.63362183 19.3666934,4.07509052 L21.2143738,8.71078778 C21.2143738,8.75494569 21.2363739,8.77702464 21.2363739,8.79910359 C21.3463746,9.10820896 21.3903748,9.41720392 21.3903748,9.70411993 C21.434265,10.7858783 20.884372,11.7129736 19.9825869,12.2207895 Z M22.7980527,8.40179281 L22.7980527,8.3576349 C22.7980527,8.31347699 22.7760526,8.26931909 22.7540525,8.22516118 L20.884372,3.56738497 C20.5544801,2.59613177 19.6305849,2 18.5527988,2 L5.50914539,2 C4.4093592,2 3.55146437,2.59602137 3.24357263,3.52311667 L1.24200136,8.29139804 C1.24200136,8.31347699 1.22000124,8.3576349 1.22000124,8.40179281 C1.06600037,8.8432615 1,9.30691954 1,9.77046719 C1,11.4039786 1.87989495,12.8830478 3.309573,13.6555904 C3.90346635,13.9646958 4.58536019,14.141217 5.35525452,14.141217 C6.65304183,14.141217 7.86282864,13.5672746 8.67661322,12.5739424 C9.4905078,13.5451956 10.7001846,14.119138 11.9979719,14.141217 C13.2957592,14.141217 14.4835459,13.5451956 15.2973305,12.5739424 C16.1112251,13.5672746 17.3209019,14.141217 18.6406893,14.141217 C19.4325838,14.141217 20.1364777,13.9645854 20.7302611,13.6335114 C22.138049,12.8608584 22.9958338,11.3818997 22.9958338,9.77046719 C23.017944,9.28484059 22.9520536,8.82118255 22.7980527,8.40179281 L22.7980527,8.40179281 Z" id="形状" fill="url(#linearGradient-1)" fill-rule="nonzero"></path>
            </g>
        </g>
    </g>
</svg>