<?xml version="1.0" encoding="UTF-8"?>
<svg width="24px" height="24px" viewBox="0 0 24 24" version="1.1" xmlns="http://www.w3.org/2000/svg" xmlns:xlink="http://www.w3.org/1999/xlink">
    <title>切片</title>
    <defs>
        <linearGradient x1="50%" y1="0%" x2="50%" y2="100%" id="linearGradient-1">
            <stop stop-color="#FFC760" offset="0%"></stop>
            <stop stop-color="#FFB632" offset="100%"></stop>
        </linearGradient>
    </defs>
    <g id="小油灯" stroke="none" stroke-width="1" fill="none" fill-rule="evenodd">
        <g id="111" transform="translate(-170.000000, -497.000000)">
            <g id="编组-23" transform="translate(170.000000, 497.000000)">
                <rect id="矩形" stroke="#979797" fill="#D8D8D8" opacity="0" x="0.5" y="0.5" width="23" height="23"></rect>
                <path d="M1.01804688,6.7028125 C1.01804688,7.36388672 1.55472656,7.90078125 2.21601563,7.90078125 C2.87730469,7.90078125 3.41398438,7.36410156 3.41398438,6.7028125 C3.41398438,6.04173828 2.87730469,5.50484375 2.21601563,5.50484375 C1.55472656,5.50484375 1.01804688,6.03507812 1.01804688,6.7028125 Z M22.1096875,16.1948242 C21.9066602,15.9917969 19.3079102,13.3930469 19.2097266,11.7958984 L19.2097266,10.9971094 C19.2097266,7.50138672 15.8121875,4.60142578 11.6160742,4.60142578 C7.41996094,4.60142578 4.02263672,7.50138672 4.02263672,10.9971094 C4.02263672,12.8954687 5.02402344,14.7938281 6.82419922,15.9917969 C7.62298828,16.489375 8.52619141,16.8885547 9.42316406,17.1897656 C10.0253711,17.2879492 10.5229492,17.3925781 11.1251563,17.4909766 C11.9237305,17.5891602 12.6241211,17.6937891 13.3247266,17.9883398 C14.2214844,18.3877344 14.4245117,19.088125 14.7257227,19.8869141 C14.8239063,20.1879102 14.9285352,20.3842773 15.0269336,20.6854883 C15.4263281,21.5822461 16.1267188,22.2826367 16.925293,22.5838477 C18.3262891,23.1862695 19.8252539,22.9832422 21.0230078,22.1844531 C22.2209766,21.3858789 22.921582,20.0830664 22.921582,18.6887305 C23.0064453,17.7919727 22.7054492,16.9933984 22.1096875,16.1948242 L22.1096875,16.1948242 Z M20.3095117,20.9929297 C19.8119336,21.2941406 19.3079102,21.4905078 18.810332,21.4905078 C18.4109375,21.4905078 18.0117578,21.3923242 17.6123633,21.2874805 C17.1147852,21.084668 16.7153906,20.6852734 16.5125781,20.1876953 C16.4143945,19.8866992 16.3097656,19.690332 16.2113672,19.3891211 C15.8119727,18.3875195 15.412793,17.2877344 14.1101953,16.5873437 C13.2134375,16.1879492 12.3100195,16.0899805 11.4130469,15.9851367 C10.9154688,15.8869531 10.4114453,15.8869531 9.91408203,15.7823242 C9.11529297,15.5792969 8.41511719,15.2847461 7.71451172,14.7807227 C6.31351563,13.8839648 5.51494141,12.4831836 5.51494141,11.0821875 C5.51494141,8.38503906 8.211875,6.18568359 11.6094141,6.18568359 C15.0067383,6.18568359 17.7038867,8.38525391 17.7038867,11.0821875 L17.7038867,11.5795508 C17.7038867,11.5795508 17.6057031,13.5760937 19.903457,15.8805078 C20.1062695,15.9786914 20.4010352,16.3780859 20.6038477,16.7772656 C20.7020313,16.9800781 20.8066602,17.0784766 20.8066602,17.1766602 C21.2060547,17.6742383 21.409082,18.2764453 21.409082,18.8786523 C21.5072656,19.690332 21.0099023,20.4889062 20.3095117,20.9929297 L20.3095117,20.9929297 Z M11.7013672,1.67546875 L11.7013672,1.66236328 C11.6489453,1.28273437 11.3217383,1.00107422 10.9354492,1.02083984 C8.44777344,1.13857422 6.36615234,1.93714844 4.70347656,3.29238281 C4.37626953,3.56072266 4.33695313,4.05164062 4.62484375,4.36595703 L4.63150391,4.37240234 C4.89339844,4.66050781 5.345,4.69316406 5.64599609,4.444375 C7.14496094,3.21375 8.85361328,2.57222656 11.0007617,2.50669922 C11.4328125,2.48714844 11.7602344,2.10085937 11.7013672,1.67546875 Z" id="形状" fill="url(#linearGradient-1)" fill-rule="nonzero"></path>
            </g>
        </g>
    </g>
</svg>