<?xml version="1.0" encoding="UTF-8"?>
<svg width="24px" height="24px" viewBox="0 0 24 24" version="1.1" xmlns="http://www.w3.org/2000/svg" xmlns:xlink="http://www.w3.org/1999/xlink">
    <title>切片</title>
    <defs>
        <linearGradient x1="50%" y1="0%" x2="50%" y2="100%" id="linearGradient-1">
            <stop stop-color="#FFC357" offset="0%"></stop>
            <stop stop-color="#FFB52E" offset="100%"></stop>
        </linearGradient>
    </defs>
    <g id="小油灯" stroke="none" stroke-width="1" fill="none" fill-rule="evenodd">
        <g id="111" transform="translate(-35.000000, -497.000000)">
            <g id="编组-25" transform="translate(35.000000, 497.000000)">
                <rect id="矩形" stroke="#979797" fill="#D8D8D8" opacity="0" x="0.5" y="0.5" width="23" height="23"></rect>
                <path d="M18.8464759,15.2404629 C19.2139651,15.0338675 19.6793504,15.164214 19.8860675,15.5316348 L19.8860675,15.5316348 L20.1955724,16.0783909 C21.0755586,17.6219615 21.9494338,19.1702052 22.817198,20.723122 L22.817198,20.723122 C23.0858519,21.1851673 23.0891345,21.7559349 22.8258253,22.2221181 C22.5383393,22.7073068 22.0114286,22.9996227 21.4476116,22.9867139 L21.4476116,22.9867139 L9.23995996,22.9867139 C7.07558215,22.9824003 4.83679375,22.979165 2.63682825,22.9996549 L2.63682825,22.9996549 L2.61849521,22.9996549 C2.0389766,23.0133958 1.49780654,22.7110016 1.20577225,22.2102555 C0.926073852,21.6990466 0.944637031,21.0765616 1.25430092,20.5829281 C1.93046678,19.4333383 2.59153483,18.246004 3.23858351,17.0974926 C3.5146576,16.6014219 3.79288853,16.1067892 4.07327629,15.6135943 L4.07327629,15.6135943 L4.08190362,15.5963397 C4.18480625,15.4218035 4.35286271,15.2953253 4.54906355,15.2447581 C4.7452644,15.1941908 4.95351906,15.2236817 5.12796564,15.3267361 C5.49650917,15.5424762 5.62334864,16.0142806 5.41266706,16.385739 L5.41266706,16.385739 L4.58228793,17.8653237 C3.92747618,19.043278 3.26062163,20.2144975 2.58182911,21.378798 C2.5697748,21.3973268 2.55999852,21.4172414 2.55271192,21.4381108 C2.57697844,21.4463974 2.6025848,21.4500555 2.62820092,21.4488949 C3.73195812,21.4391892 4.84461224,21.4354147 5.95241349,21.4340667 L21.4530037,21.4337971 C20.5902721,19.8938213 19.7275405,18.3711001 18.864809,16.8505357 L18.864809,16.8505357 L18.5542256,16.304858 C18.3432596,15.9333557 18.4695574,15.4612995 18.8378486,15.2447766 L18.8378486,15.2447766 Z M6.0908206,11.1711991 C6.29412335,11.1861687 6.48312873,11.281369 6.6161776,11.4358167 L6.6161776,11.4358167 L12.0686411,17.6733659 L17.4035574,11.4455224 C17.5821348,11.2370857 17.8583469,11.1397522 18.1281471,11.1901865 C18.3979473,11.2406207 18.6203466,11.4311606 18.7115693,11.6900316 C18.802792,11.9489026 18.7489793,12.2367759 18.5704018,12.4452126 L18.5704018,12.4452126 L12.6585338,19.2985365 C12.5076172,19.4536494 12.2950401,19.5328215 12.0794252,19.5142194 C11.8643232,19.5314177 11.6526544,19.4524368 11.5013951,19.2985365 L11.5013951,19.2985365 L5.46227412,12.4193307 C5.1848063,12.0971603 5.22004582,11.6207026 5.5356063,11.3484651 L5.5356063,11.3484651 L5.53330987,11.3553743 L5.63015931,11.2841711 C5.73284004,11.2205793 5.84913541,11.1820921 5.96948023,11.1718753 Z M12.8429427,9.32751644 C13.0718856,8.97049957 13.546675,8.86627751 13.9041025,9.09457892 L13.9041025,9.09457892 C14.0747141,9.20433834 14.1957322,9.37784454 14.2394232,9.57688143 C14.2831142,9.77591832 14.2458944,9.98415967 14.1359616,10.1557387 C13.660932,10.8726644 12.8678415,11.3148335 12.0082499,11.3419946 C11.1484793,11.3170653 10.356202,10.8700983 9.89024387,10.1471114 C9.6858731,9.78996675 9.79937268,9.33520264 10.1475943,9.11597342 C10.4958159,8.89674421 10.9549562,8.99099252 11.1886549,9.32967326 C11.3738421,9.60616517 11.676307,9.7816744 12.0082499,9.80525403 C12.3434186,9.77721418 12.6490046,9.60231161 12.8429427,9.32751644 Z M12.0157988,1.0003743 C16.184086,1.0003743 19.6379362,4.2333313 19.9130278,8.39253109 C19.9124553,8.76416415 19.8799837,9.13506224 19.8159705,9.50114115 L19.8159705,9.50114115 L19.8127353,9.51839579 C19.7770239,9.71719578 19.6637811,9.89365851 19.4979318,10.008944 C19.3320825,10.1242295 19.1272201,10.1688887 18.9284354,10.133092 C18.5087779,10.0559936 18.2296511,9.65510975 18.3029551,9.23477278 C18.3519055,8.95703032 18.3771594,8.67562966 18.3784441,8.3936095 C18.099225,5.08717224 15.3340047,2.54562443 12.0157988,2.54562443 C8.69759284,2.54562443 5.93237251,5.08717224 5.65315348,8.3936095 C5.65363192,8.67338125 5.67780288,8.95260994 5.72540724,9.22830231 C5.79871117,9.64863928 5.5195844,10.0495231 5.09992685,10.1266215 L5.09992685,10.1266215 L5.10100528,10.1244647 C4.67962608,10.1932354 4.28391458,9.90948127 4.21454861,9.490357 C4.15212623,9.12771511 4.12002225,8.76050336 4.11856972,8.39253109 C4.39366139,4.2333313 7.84751155,1.0003743 12.0157988,1.0003743 Z M15.0127125,5.58326144 C15.216354,5.58433985 15.4116549,5.66523611 15.5556511,5.80923237 C15.6996474,5.95322864 15.7805436,6.14852949 15.7805436,6.35217096 L15.7805436,6.35217096 L15.7805436,7.101669 C15.7805436,7.5257304 15.4367739,7.86950009 15.0127125,7.86950009 C14.5886511,7.86950009 14.2448807,7.5257304 14.2448807,7.101669 L14.2448807,7.101669 L14.2448807,6.35217096 C14.2445952,6.1483427 14.325365,5.9527647 14.4693923,5.80853511 C14.6134196,5.66430552 14.8088841,5.58326144 15.0127125,5.58326144 L15.0127125,5.58326144 Z M9.01888499,5.58326144 C9.44312121,5.58433943 9.78719951,5.92793516 9.78779451,6.35217096 L9.78779451,6.35217096 L9.78779451,7.101669 C9.77231315,7.51483295 9.4328781,7.84178747 9.01942421,7.84178747 C8.60597032,7.84178747 8.26653527,7.51483295 8.25105315,7.101669 L8.25105315,7.101669 L8.25105315,6.35217096 C8.25076763,6.1483427 8.33153748,5.9527647 8.47556479,5.80853511 C8.61959209,5.66430552 8.81505654,5.58326144 9.01888499,5.58326144 L9.01888499,5.58326144 Z" id="形状结合" fill="url(#linearGradient-1)" fill-rule="nonzero"></path>
            </g>
        </g>
    </g>
</svg>