<?xml version="1.0" encoding="UTF-8"?>
<svg width="24px" height="24px" viewBox="0 0 24 24" version="1.1" xmlns="http://www.w3.org/2000/svg" xmlns:xlink="http://www.w3.org/1999/xlink">
    <title>切片</title>
    <defs>
        <linearGradient x1="50%" y1="0%" x2="50%" y2="100%" id="linearGradient-1">
            <stop stop-color="#FFC761" offset="0%"></stop>
            <stop stop-color="#FFB52F" offset="100%"></stop>
        </linearGradient>
    </defs>
    <g id="小油灯" stroke="none" stroke-width="1" fill="none" fill-rule="evenodd">
        <g id="111" transform="translate(-104.000000, -497.000000)">
            <g id="编组-25" transform="translate(104.000000, 497.000000)">
                <rect id="矩形" fill="#D8D8D8" opacity="0" x="0" y="0" width="24" height="24"></rect>
                <g id="编组-23" transform="translate(1.000000, 2.000000)" fill-rule="nonzero" stroke="#FFFFFF">
                    <path d="M5.95594097,20.9999188 C4.39133926,20.9879878 3.11338213,19.732037 3.10143861,18.1798713 L3.06560803,14.1395012 C3.06560803,13.9499237 3.00589041,13.7721949 2.89839869,13.6300117 L0.533580829,10.336103 C-0.386070561,9.05645498 -0.0874824471,7.27916608 1.2024182,6.36682444 C1.42934517,6.20094415 1.69210271,6.07060963 1.95486025,5.98766948 L5.81261868,4.70802147 C5.99177155,4.64877851 6.14703737,4.54214117 6.25452909,4.39995806 L8.67906457,1.15344367 C9.62260301,-0.11435574 11.4141317,-0.375024779 12.6801453,0.561014041 C12.9070723,0.726894338 13.1101122,0.928320414 13.2773215,1.15344367 L15.701857,4.39995806 C15.8093487,4.54214117 15.9646145,4.6606271 16.1437674,4.70802147 L20.0015258,5.98766948 C21.5064099,6.48531037 22.3066261,8.09671897 21.804998,9.58964165 C21.7094498,9.86215928 21.5900146,10.1109797 21.4228053,10.336103 L19.0579874,13.6181632 C18.9504957,13.7721949 18.8907781,13.9499237 18.8907781,14.1276526 L18.8549475,18.1798713 C18.843004,19.7438856 17.5531033,21.011685 15.9646145,20.9999188 C15.67797,20.9999188 15.3913254,20.952442 15.1166243,20.8695019 L11.2349788,19.6490968 C11.055826,19.5898539 10.8647296,19.5898539 10.6975202,19.6490968 L6.81587474,20.8695019 C6.5531172,20.9642906 6.25452909,20.9999188 5.95594097,20.9999188 Z M10.9841648,1.93545079 C10.6975202,1.93545079 10.4228192,2.06578531 10.2556098,2.30275716 L7.84301785,5.54927155 C7.49665564,6.02321526 7.00697113,6.37867304 6.44562548,6.55640193 L2.57592353,7.83604993 C2.09818254,7.99008164 1.84736853,8.49957112 2.00263435,8.97351483 C2.0265214,9.05645498 2.0742955,9.13939513 2.12206959,9.21048668 L4.48688745,12.4925468 C4.83324967,12.9664906 5.01240253,13.535223 5.02434606,14.115804 L5.06017663,18.1680227 C5.06017663,18.6656636 5.47819999,19.0566672 5.9678845,19.0566672 C6.05148917,19.0566672 6.14703737,19.0448186 6.23064204,19.0211214 L10.1122875,17.8007164 C10.6736332,17.6229875 11.2827529,17.6229875 11.8440986,17.8007164 L15.7257441,19.0211214 C16.203485,19.1633045 16.7051131,18.9026355 16.8603789,18.4286918 C16.8842659,18.3457516 16.8962095,18.2628115 16.8962095,18.1680227 L16.93204,14.1276526 C16.93204,13.5470716 17.1231364,12.9783391 17.4694986,12.4925468 L19.8343165,9.21048668 C20.1209611,8.80763453 20.0254129,8.25075068 19.6193331,7.96638445 C19.5476719,7.91899008 19.4640672,7.87159571 19.3804626,7.84789853 L15.5227041,6.56825052 C14.9613585,6.37867304 14.471674,6.03506385 14.1253118,5.56112014 L11.7007763,2.30275716 C11.5455105,2.06578531 11.2708094,1.93545079 10.9841648,1.93545079 Z" id="形状" stroke-width="0.572727273" fill="url(#linearGradient-1)"></path>
                    <path d="M11.4519205,15.2727273 C10.0048794,15.2727273 8.67742848,14.7944899 7.90009236,13.9860411 C7.52936282,13.6102831 7.55328086,13.0181797 7.94792843,12.665195 C8.342576,12.3122103 8.9644449,12.3349835 9.33517443,12.7107414 L9.34713345,12.722128 C9.64610888,13.0295663 10.3756089,13.3939377 11.4519205,13.3939377 C12.528232,13.3939377 13.2577321,13.0295663 13.5567075,12.722128 C13.915478,12.3349835 14.5373469,12.3008237 14.9439535,12.6538084 C15.3505601,12.9954065 15.3864372,13.5875099 15.0157076,13.9746544 L15.0037486,13.9860411 C14.2383715,14.7944899 12.9109206,15.2727273 11.4519205,15.2727273 L11.4519205,15.2727273 Z" id="路径" stroke-width="0.5" fill="#FF8F44"></path>
                </g>
            </g>
        </g>
    </g>
</svg>