<?xml version="1.0" encoding="UTF-8"?>
<svg width="24px" height="24px" viewBox="0 0 24 24" version="1.1" xmlns="http://www.w3.org/2000/svg" xmlns:xlink="http://www.w3.org/1999/xlink">
    <title>切片</title>
    <defs>
        <linearGradient x1="50%" y1="0%" x2="50%" y2="100%" id="linearGradient-1">
            <stop stop-color="#FFC75D" offset="0%"></stop>
            <stop stop-color="#FFB634" offset="100%"></stop>
        </linearGradient>
    </defs>
    <g id="小油灯" stroke="none" stroke-width="1" fill="none" fill-rule="evenodd">
        <g id="111" transform="translate(-309.000000, -497.000000)">
            <g id="编组-23" transform="translate(309.000000, 497.000000)">
                <rect id="矩形" stroke="#979797" fill="#D8D8D8" opacity="0" x="0.5" y="0.5" width="23" height="23"></rect>
                <path d="M12,1 C18.05,1 23,5.95 23,12 C23,18.05 18.05,23 12,23 C5.95,23 1,18.05 1,12 C1,5.95 5.95,1 12,1 Z M12,2.5125 C6.775,2.5125 2.5125,6.775 2.5125,12 C2.5125,17.225 6.775,21.4875 12,21.4875 C17.225,21.4875 21.4875,17.225 21.4875,12 C21.4875,6.775 17.225,2.5125 12,2.5125 Z M11.8625,15.3 C12.1375,15.3 12.4125,15.4375 12.6875,15.575 C12.9625,15.7125 12.9625,15.9875 12.9625,16.4 C12.9625,16.675 12.825,16.95 12.6875,17.225 C12.4125,17.3625 12.1375,17.5 11.8625,17.5 C11.5875,17.5 11.3125,17.3625 11.0375,17.225 C10.7625,16.95 10.7625,16.8125 10.7625,16.4 C10.7625,16.125 10.9,15.85 11.0375,15.575 C11.3125,15.4375 11.5875,15.3 11.8625,15.3 Z M12.1375,6.5 C13.1,6.5 13.925,6.775 14.475,7.325 C15.025,7.875 15.4375,8.5625 15.4375,9.525 C15.4375,10.2125 15.3,10.9 14.8875,11.3125 L13.65,12.55 C13.2375,12.6875 13.1,12.9625 12.9625,13.2375 C12.825,13.5125 12.6875,13.925 12.6875,14.3375 L12.6875,14.6125 L11.0375,14.6125 L11.0375,14.3375 C11.0375,13.7875 11.175,13.2375 11.3125,12.9625 C11.45,12.55 12.1375,11.8625 12.9625,11.0375 L13.375,10.625 C13.65,10.2125 13.7875,9.9375 13.7875,9.525 C13.7875,8.975 13.65,8.5625 13.375,8.2875 C13.1,8.0125 12.55,7.875 12,7.875 C11.3125,7.875 10.9,8.15 10.625,8.5625 C10.35,8.8375 10.2125,9.3875 10.2125,10.075 L8.5625,10.075 C8.5625,8.975 8.8375,8.15 9.525,7.4625 C10.2125,6.775 11.0375,6.5 12.1375,6.5 Z" id="形状结合" fill="url(#linearGradient-1)" fill-rule="nonzero"></path>
            </g>
        </g>
    </g>
</svg>