<?xml version="1.0" encoding="UTF-8"?>
<svg width="50px" height="50px" viewBox="0 0 50 50" version="1.1" xmlns="http://www.w3.org/2000/svg" xmlns:xlink="http://www.w3.org/1999/xlink">
    <title>切片</title>
    <g id="小油灯" stroke="none" stroke-width="1" fill="none" fill-rule="evenodd">
        <g id="个人中心_未登录" transform="translate(-15.000000, -105.000000)" fill="#FFFFFF" fill-rule="nonzero">
            <g id="-xyd/zhongxin/denglu_icon" transform="translate(15.000000, 105.000000)">
                <path d="M25.0029411,11.6676466 C22.0264203,11.6676466 19.2760017,13.2557839 17.7877413,15.8338228 C16.299481,18.4118617 16.299481,21.5881366 17.7877413,24.1661755 C19.2760017,26.7442144 22.0264203,28.3323518 25.0029411,28.3323518 C29.6042434,28.3323518 33.3343359,24.6018304 33.3343359,19.9999992 C33.3343359,15.3981679 29.6042434,11.6676466 25.0029411,11.6676466 Z M25.0029411,31.6676457 C16.0245618,31.6676457 10.8869172,34.8029397 10.1046543,40.7264689 C18.4601324,48.6362732 31.5398681,48.6362732 39.8953462,40.7264689 C39.1189649,34.8029397 33.9813204,31.6676457 25.0029411,31.6676457 L25.0029411,31.6676457 Z M25.0029411,50 C14.9355965,50.0020673 5.84948227,43.9639701 1.95099198,34.6810281 C-1.9474983,25.3980861 0.102542273,14.6821429 7.1520526,7.49411734 C11.7178319,2.8127829 17.9446937,0.120119111 24.4824127,0 L25.0029411,0 C35.0692159,0 44.1531625,6.039268 48.0501466,15.321682 C51.9471307,24.604096 49.8967088,35.3186187 42.8479479,42.5058805 C38.2841457,47.1848208 32.0609859,49.8772544 25.5264103,50 L25.0029411,50 Z" id="形状"></path>
            </g>
        </g>
    </g>
</svg>