<?xml version="1.0" encoding="UTF-8"?>
<svg width="18px" height="16px" viewBox="0 0 18 16" version="1.1" xmlns="http://www.w3.org/2000/svg" xmlns:xlink="http://www.w3.org/1999/xlink">
    <title> xyd/zhongxin/wdqb_yhq_icon</title>
    <g id="-xyd/zhongxin/wdqb_yhq_icon" stroke="none" stroke-width="1" fill="none" fill-rule="evenodd">
        <g id="编组-25" fill-rule="nonzero">
            <path d="M11.8539897,0.160107968 C13.2804538,-0.35906666 14.8755308,0.425987303 15.4168878,1.9133148 L15.6871904,2.65603861 C15.7069315,2.71028044 15.6989717,2.77074193 15.6658647,2.81802632 C15.6327577,2.86531071 15.5786664,2.89347669 15.5209439,2.89347669 L5.34755396,2.89347669 C5.26168148,2.89347669 5.1881989,2.83183696 5.17328858,2.74726885 C5.15837826,2.66270073 5.20634574,2.57963617 5.28704441,2.55027959 L11.8539897,0.160107968 Z" id="路径" fill="#FFE1B4"></path>
            <path d="M15.0389243,2.45584399 C16.5046444,2.45584399 17.6928521,3.6440517 17.6928521,5.1097718 L17.6928521,6.77515574 C17.6928521,7.29590268 17.4634494,7.79020627 17.0657511,8.12638097 C16.7466162,8.39615273 16.5870488,8.71020086 16.5870488,9.06854746 C16.5870488,9.42689406 16.7466162,9.74094219 17.0657511,10.0106918 C17.4634612,10.3468765 17.6928521,10.8411989 17.6928521,11.3619613 L17.6928521,13.0273231 C17.6928521,14.4930432 16.5046444,15.6812509 15.0389243,15.6812509 L2.65392781,15.6812509 C1.18820771,15.6812509 -8.17124146e-14,14.4930432 -8.17124146e-14,13.0273231 L-8.17124146e-14,11.3619392 C-8.17124146e-14,10.8411922 0.229402708,10.3468886 0.627101026,10.0107139 C0.946235846,9.74094219 1.10580326,9.42689406 1.10580326,9.06854746 C1.10580326,8.71020086 0.946235846,8.39615273 0.627101026,8.12640308 C0.229390899,7.7902184 -8.17124146e-14,7.29589603 -8.17124146e-14,6.77513362 L-8.17124146e-14,5.1097718 C-8.17124146e-14,3.6440517 1.18820771,2.45584399 2.65392781,2.45584399 L15.0389243,2.45584399 Z M6.10403397,6.81270882 C5.66872346,6.81270882 5.31499912,7.1620763 5.30796621,7.5957281 L5.30785563,10.5282078 C5.30785563,10.9679194 5.66432236,11.3243861 6.10403397,11.3243861 C6.53934448,11.3243861 6.89306883,10.9750186 6.90010173,10.5413668 L6.90021231,7.60888716 C6.90021231,7.16917555 6.54374558,6.81270882 6.10403397,6.81270882 Z" id="形状结合" fill="#FDD033"></path>
        </g>
    </g>
</svg>