<?xml version="1.0" encoding="UTF-8"?>
<svg width="21px" height="20px" viewBox="0 0 21 20" version="1.1" xmlns="http://www.w3.org/2000/svg" xmlns:xlink="http://www.w3.org/1999/xlink">
    <title>切片</title>
    <g id="小油灯" stroke="none" stroke-width="1" fill="none" fill-rule="evenodd">
        <g id="加油闪付首页备份" transform="translate(-25.000000, -169.000000)" fill-rule="nonzero">
            <g id="编组-9" transform="translate(10.000000, 154.000000)">
                <g id="编组-10" transform="translate(15.000000, 14.000000)">
                    <g id="编组-5" transform="translate(0.000000, 1.000000)">
                        <path d="M7.03366895,0.0826117757 C6.21082649,0.338116957 5.7531071,1.61463088 5.08519907,2.23127191 C5.02180852,2.28660708 4.95742624,2.33186291 4.89306419,2.37813072 L5.08519907,2.60649455 L9.22861714,7.70957502 C9.63100137,8.13106547 9.87745943,8.03952159 9.94184171,7.44504296 L10.3079768,0.621755234 C9.35636973,0.621755234 7.883673,-0.173925627 7.03364871,0.0825712964 L7.03364871,0.0826117757 L7.03366895,0.0826117757 Z M5.08519907,3.15470536 L4.67376772,2.59744743 C3.92433443,3.18289918 2.26859042,3.28349018 1.77468255,4.01478875 C1.23448663,4.78332826 1.78372967,6.16448111 1.50003067,7.04263849 L5.08517883,7.93893059 L8.29510434,8.74365857 C8.87152921,8.81611647 9.00934091,8.60586712 8.68844146,8.09386501 L5.08519907,3.15470536 Z M8.2408014,9.52027369 L5.08519907,8.49620876 L1.4638422,7.33534413 C1.24450525,8.21253001 -0.0179016466,9.24665404 0.000192589141,10.1338788 C0.0182868249,11.0754267 1.2907933,11.8620807 1.4919753,12.8046204 L5.08517883,11.4727713 L8.29510434,10.2837533 C8.81716555,9.99606709 8.78901221,9.74960902 8.24078116,9.52025345 L8.2408014,9.52027369 Z M19.2336366,7.39875491 L13.8931451,9.05852661 L12.5029249,9.48807243 C11.962729,9.72645488 11.962729,9.9819803 12.5029249,10.2475446 L13.8931451,10.7867285 L19.1702258,12.8267625 C19.5082277,11.9304704 20.6791312,11.0613399 20.6882877,10.1831623 C20.6972457,9.23760692 19.4539045,8.30407389 19.2336163,7.39875491 L19.2336366,7.39875491 L19.2336366,7.39875491 Z M15.9140122,2.43243367 C15.2370368,1.92951916 14.6063292,0.722386711 13.8931451,0.228478842 C13.7986438,0.157816316 13.6937941,0.102175892 13.5823048,0.0635257977 C12.6950598,-0.247334792 11.4326124,0.68615776 10.509179,0.639889949 L10.7646842,7.49934591 C10.8471809,8.08479766 11.0946307,8.15822706 11.4969947,7.70957502 L13.8931451,4.84769031 L15.9140122,2.43241343 L15.9140122,2.43243367 Z M12.4747311,8.75671314 L13.8931047,8.40869257 L19.2154816,7.09192201 C18.9227557,6.17751544 19.3442462,4.64950378 18.8312119,3.92725232 C18.3010953,3.15875329 16.7187604,3.16877191 15.996509,2.59238752 L13.8931249,5.52369419 L12.0090171,8.15822706 C11.7343854,8.67024941 11.8902914,8.8714314 12.4747311,8.75675362 L12.4747311,8.75673338 L12.4747311,8.75671314 Z" id="形状" fill="#FFB52E"></path>
                        <path d="M10.3170239,10.4266047 L19.1521518,13.0822677 C18.9227962,14.0700834 19.2618101,15.1132343 18.6582237,16.0457554 C18.0546777,16.978236 16.5266458,16.9239128 15.6484884,17.5636877 C14.7703108,18.2034829 14.541947,19.5121981 13.5450841,19.8502 C12.548201,20.188202 11.4879476,19.319031 10.3995206,19.319031 C9.31109366,19.319031 8.16737199,20.1700672 7.13425995,19.8220062 C6.10116814,19.4739452 5.79840341,18.1390804 4.939332,17.4801992 C4.08028083,16.8213383 2.60659236,16.8404243 2.04929395,15.971314 C1.49199554,15.1021835 1.86620619,13.9775478 1.64692996,13.0631615 L10.3170441,10.4266047 L10.3170239,10.4266047 Z" id="路径" fill="#E60012"></path>
                    </g>
                </g>
            </g>
        </g>
    </g>
</svg>